<mxfile host="65bd71144e">
    <diagram id="ONVLRv-cXeqXNDz7-j5w" name="Tabela">
        <mxGraphModel dx="1175" dy="987" grid="1" gridSize="10" guides="1" tooltips="1" connect="1" arrows="1" fold="1" page="1" pageScale="1" pageWidth="850" pageHeight="1100" math="0" shadow="0">
            <root>
                <mxCell id="0"/>
                <mxCell id="1" parent="0"/>
                <mxCell id="2" value="" style="rounded=0;whiteSpace=wrap;html=1;" parent="1" vertex="1">
                    <mxGeometry x="80" y="160" width="120" height="80" as="geometry"/>
                </mxCell>
                <mxCell id="3" value="" style="endArrow=none;html=1;exitX=0;exitY=0.5;exitDx=0;exitDy=0;entryX=1;entryY=0.5;entryDx=0;entryDy=0;" parent="1" source="2" target="2" edge="1">
                    <mxGeometry width="50" height="50" relative="1" as="geometry">
                        <mxPoint x="90" y="350" as="sourcePoint"/>
                        <mxPoint x="140" y="300" as="targetPoint"/>
                    </mxGeometry>
                </mxCell>
                <mxCell id="4" value="" style="endArrow=none;html=1;exitX=0.5;exitY=0;exitDx=0;exitDy=0;" parent="1" source="2" edge="1">
                    <mxGeometry width="50" height="50" relative="1" as="geometry">
                        <mxPoint x="180" y="330" as="sourcePoint"/>
                        <mxPoint x="140" y="200" as="targetPoint"/>
                    </mxGeometry>
                </mxCell>
                <mxCell id="5" value="&lt;font style=&quot;font-size: 20px&quot;&gt;0&lt;/font&gt;" style="text;html=1;strokeColor=none;fillColor=none;align=center;verticalAlign=middle;whiteSpace=wrap;rounded=0;" parent="1" vertex="1">
                    <mxGeometry x="80" y="200" width="120" height="40" as="geometry"/>
                </mxCell>
                <mxCell id="6" value="" style="endArrow=classic;html=1;fontSize=20;exitX=0.25;exitY=0;exitDx=0;exitDy=0;" parent="1" source="2" edge="1">
                    <mxGeometry width="50" height="50" relative="1" as="geometry">
                        <mxPoint x="90" y="370" as="sourcePoint"/>
                        <mxPoint x="110" y="90" as="targetPoint"/>
                    </mxGeometry>
                </mxCell>
                <mxCell id="7" value="" style="endArrow=classic;html=1;fontSize=20;" parent="1" edge="1">
                    <mxGeometry width="50" height="50" relative="1" as="geometry">
                        <mxPoint x="200" y="180" as="sourcePoint"/>
                        <mxPoint x="280" y="180" as="targetPoint"/>
                    </mxGeometry>
                </mxCell>
                <mxCell id="8" value="&lt;font style=&quot;font-size: 20px&quot;&gt;Universe&lt;br&gt;&lt;/font&gt;" style="text;html=1;strokeColor=none;fillColor=none;align=center;verticalAlign=middle;whiteSpace=wrap;rounded=0;" parent="1" vertex="1">
                    <mxGeometry x="70" y="60" width="80" height="30" as="geometry"/>
                </mxCell>
                <mxCell id="9" value="" style="rounded=0;whiteSpace=wrap;html=1;fontSize=20;" vertex="1" parent="1">
                    <mxGeometry x="280.3599999999999" y="80" width="120" height="200" as="geometry"/>
                </mxCell>
                <mxCell id="10" value="" style="endArrow=none;html=1;fontSize=20;exitX=0.002;exitY=0.139;exitDx=0;exitDy=0;exitPerimeter=0;entryX=0.997;entryY=0.138;entryDx=0;entryDy=0;entryPerimeter=0;" edge="1" source="9" target="9" parent="1">
                    <mxGeometry width="50" height="50" relative="1" as="geometry">
                        <mxPoint x="410.3599999999999" y="150" as="sourcePoint"/>
                        <mxPoint x="460.3599999999999" y="100" as="targetPoint"/>
                    </mxGeometry>
                </mxCell>
                <mxCell id="11" value="" style="endArrow=none;html=1;fontSize=20;exitX=0.004;exitY=0.278;exitDx=0;exitDy=0;exitPerimeter=0;entryX=1.002;entryY=0.28;entryDx=0;entryDy=0;entryPerimeter=0;" edge="1" source="9" target="9" parent="1">
                    <mxGeometry width="50" height="50" relative="1" as="geometry">
                        <mxPoint x="230.3599999999999" y="170" as="sourcePoint"/>
                        <mxPoint x="280.3599999999999" y="120" as="targetPoint"/>
                    </mxGeometry>
                </mxCell>
                <mxCell id="12" value="" style="endArrow=none;html=1;fontSize=20;entryX=0.999;entryY=0.42;entryDx=0;entryDy=0;entryPerimeter=0;exitX=-0.003;exitY=0.42;exitDx=0;exitDy=0;exitPerimeter=0;" edge="1" source="9" target="9" parent="1">
                    <mxGeometry width="50" height="50" relative="1" as="geometry">
                        <mxPoint x="230.3599999999999" y="200" as="sourcePoint"/>
                        <mxPoint x="280.3599999999999" y="150" as="targetPoint"/>
                    </mxGeometry>
                </mxCell>
                <mxCell id="13" value="" style="endArrow=none;html=1;fontSize=20;exitX=0;exitY=0.561;exitDx=0;exitDy=0;exitPerimeter=0;entryX=0.999;entryY=0.561;entryDx=0;entryDy=0;entryPerimeter=0;" edge="1" source="9" target="9" parent="1">
                    <mxGeometry width="50" height="50" relative="1" as="geometry">
                        <mxPoint x="420.3599999999999" y="230" as="sourcePoint"/>
                        <mxPoint x="430.3599999999999" y="237" as="targetPoint"/>
                    </mxGeometry>
                </mxCell>
                <mxCell id="14" value="" style="endArrow=none;html=1;fontSize=20;exitX=0.004;exitY=0.697;exitDx=0;exitDy=0;exitPerimeter=0;entryX=1.002;entryY=0.697;entryDx=0;entryDy=0;entryPerimeter=0;" edge="1" source="9" target="9" parent="1">
                    <mxGeometry width="50" height="50" relative="1" as="geometry">
                        <mxPoint x="410.3599999999999" y="290" as="sourcePoint"/>
                        <mxPoint x="460.3599999999999" y="240" as="targetPoint"/>
                    </mxGeometry>
                </mxCell>
                <mxCell id="15" value="" style="endArrow=none;html=1;fontSize=20;exitX=-0.002;exitY=0.84;exitDx=0;exitDy=0;exitPerimeter=0;entryX=1.001;entryY=0.835;entryDx=0;entryDy=0;entryPerimeter=0;" edge="1" source="9" target="9" parent="1">
                    <mxGeometry width="50" height="50" relative="1" as="geometry">
                        <mxPoint x="440.3599999999999" y="330" as="sourcePoint"/>
                        <mxPoint x="490.3599999999999" y="280" as="targetPoint"/>
                    </mxGeometry>
                </mxCell>
                <mxCell id="16" value="Con" style="text;html=1;strokeColor=none;fillColor=none;align=center;verticalAlign=middle;whiteSpace=wrap;rounded=0;fontSize=20;" vertex="1" parent="1">
                    <mxGeometry x="280.3599999999999" y="80" width="120" height="30" as="geometry"/>
                </mxCell>
                <mxCell id="17" value="K" style="text;html=1;strokeColor=none;fillColor=none;align=center;verticalAlign=middle;whiteSpace=wrap;rounded=0;fontSize=20;" vertex="1" parent="1">
                    <mxGeometry x="280.3599999999999" y="110" width="120" height="20" as="geometry"/>
                </mxCell>
                <mxCell id="18" value="intType" style="text;html=1;strokeColor=none;fillColor=none;align=center;verticalAlign=middle;whiteSpace=wrap;rounded=0;fontSize=20;" vertex="1" parent="1">
                    <mxGeometry x="280.3599999999999" y="140" width="120" height="20" as="geometry"/>
                </mxCell>
                <mxCell id="37" style="edgeStyle=none;html=1;entryX=0;entryY=0.5;entryDx=0;entryDy=0;fontSize=20;" edge="1" parent="1" target="23">
                    <mxGeometry relative="1" as="geometry">
                        <mxPoint x="400.3599999999999" y="180" as="sourcePoint"/>
                    </mxGeometry>
                </mxCell>
                <mxCell id="20" value="Adr = 2" style="text;html=1;strokeColor=none;fillColor=none;align=center;verticalAlign=middle;whiteSpace=wrap;rounded=0;fontSize=20;" vertex="1" parent="1">
                    <mxGeometry x="280.3599999999999" y="190" width="120" height="30" as="geometry"/>
                </mxCell>
                <mxCell id="21" value="Level = 0" style="text;html=1;strokeColor=none;fillColor=none;align=center;verticalAlign=middle;whiteSpace=wrap;rounded=0;fontSize=20;" vertex="1" parent="1">
                    <mxGeometry x="280.3599999999999" y="220" width="120" height="30" as="geometry"/>
                </mxCell>
                <mxCell id="92" style="edgeStyle=none;html=1;exitX=1;exitY=0.5;exitDx=0;exitDy=0;entryX=0;entryY=0.5;entryDx=0;entryDy=0;fontSize=20;" edge="1" parent="1" source="23" target="88">
                    <mxGeometry relative="1" as="geometry"/>
                </mxCell>
                <mxCell id="23" value="" style="rounded=0;whiteSpace=wrap;html=1;fontSize=20;" vertex="1" parent="1">
                    <mxGeometry x="480.3599999999999" y="80" width="120" height="200" as="geometry"/>
                </mxCell>
                <mxCell id="24" value="" style="endArrow=none;html=1;fontSize=20;exitX=0.002;exitY=0.139;exitDx=0;exitDy=0;exitPerimeter=0;entryX=0.997;entryY=0.138;entryDx=0;entryDy=0;entryPerimeter=0;" edge="1" source="23" target="23" parent="1">
                    <mxGeometry width="50" height="50" relative="1" as="geometry">
                        <mxPoint x="610.3599999999999" y="150" as="sourcePoint"/>
                        <mxPoint x="660.3599999999999" y="100" as="targetPoint"/>
                    </mxGeometry>
                </mxCell>
                <mxCell id="25" value="" style="endArrow=none;html=1;fontSize=20;exitX=0.004;exitY=0.278;exitDx=0;exitDy=0;exitPerimeter=0;entryX=1.002;entryY=0.28;entryDx=0;entryDy=0;entryPerimeter=0;" edge="1" source="23" target="23" parent="1">
                    <mxGeometry width="50" height="50" relative="1" as="geometry">
                        <mxPoint x="430.3599999999999" y="170" as="sourcePoint"/>
                        <mxPoint x="480.3599999999999" y="120" as="targetPoint"/>
                    </mxGeometry>
                </mxCell>
                <mxCell id="26" value="" style="endArrow=none;html=1;fontSize=20;entryX=0.999;entryY=0.42;entryDx=0;entryDy=0;entryPerimeter=0;exitX=-0.003;exitY=0.42;exitDx=0;exitDy=0;exitPerimeter=0;" edge="1" source="23" target="23" parent="1">
                    <mxGeometry width="50" height="50" relative="1" as="geometry">
                        <mxPoint x="430.3599999999999" y="200" as="sourcePoint"/>
                        <mxPoint x="480.3599999999999" y="150" as="targetPoint"/>
                    </mxGeometry>
                </mxCell>
                <mxCell id="27" value="" style="endArrow=none;html=1;fontSize=20;exitX=0;exitY=0.561;exitDx=0;exitDy=0;exitPerimeter=0;entryX=0.999;entryY=0.561;entryDx=0;entryDy=0;entryPerimeter=0;" edge="1" source="23" target="23" parent="1">
                    <mxGeometry width="50" height="50" relative="1" as="geometry">
                        <mxPoint x="620.3599999999999" y="230" as="sourcePoint"/>
                        <mxPoint x="630.3599999999999" y="237" as="targetPoint"/>
                    </mxGeometry>
                </mxCell>
                <mxCell id="28" value="" style="endArrow=none;html=1;fontSize=20;exitX=0.004;exitY=0.697;exitDx=0;exitDy=0;exitPerimeter=0;entryX=1.002;entryY=0.697;entryDx=0;entryDy=0;entryPerimeter=0;" edge="1" source="23" target="23" parent="1">
                    <mxGeometry width="50" height="50" relative="1" as="geometry">
                        <mxPoint x="610.3599999999999" y="290" as="sourcePoint"/>
                        <mxPoint x="660.3599999999999" y="240" as="targetPoint"/>
                    </mxGeometry>
                </mxCell>
                <mxCell id="29" value="" style="endArrow=none;html=1;fontSize=20;exitX=-0.002;exitY=0.84;exitDx=0;exitDy=0;exitPerimeter=0;entryX=1.001;entryY=0.835;entryDx=0;entryDy=0;entryPerimeter=0;" edge="1" source="23" target="23" parent="1">
                    <mxGeometry width="50" height="50" relative="1" as="geometry">
                        <mxPoint x="640.3599999999999" y="330" as="sourcePoint"/>
                        <mxPoint x="690.3599999999999" y="280" as="targetPoint"/>
                    </mxGeometry>
                </mxCell>
                <mxCell id="30" value="Type" style="text;html=1;strokeColor=none;fillColor=none;align=center;verticalAlign=middle;whiteSpace=wrap;rounded=0;fontSize=20;" vertex="1" parent="1">
                    <mxGeometry x="480.3599999999999" y="80" width="120" height="30" as="geometry"/>
                </mxCell>
                <mxCell id="31" value="C" style="text;html=1;strokeColor=none;fillColor=none;align=center;verticalAlign=middle;whiteSpace=wrap;rounded=0;fontSize=20;" vertex="1" parent="1">
                    <mxGeometry x="480.3599999999999" y="110" width="120" height="20" as="geometry"/>
                </mxCell>
                <mxCell id="38" value="" style="rounded=1;whiteSpace=wrap;html=1;fontSize=20;" vertex="1" parent="1">
                    <mxGeometry x="580" y="320" width="120" height="160" as="geometry"/>
                </mxCell>
                <mxCell id="39" value="" style="endArrow=none;html=1;fontSize=20;exitX=0;exitY=0.25;exitDx=0;exitDy=0;entryX=1;entryY=0.25;entryDx=0;entryDy=0;" edge="1" source="38" target="38" parent="1">
                    <mxGeometry width="50" height="50" relative="1" as="geometry">
                        <mxPoint x="600" y="310" as="sourcePoint"/>
                        <mxPoint x="650" y="260" as="targetPoint"/>
                    </mxGeometry>
                </mxCell>
                <mxCell id="40" value="" style="endArrow=none;html=1;fontSize=20;exitX=0;exitY=0.5;exitDx=0;exitDy=0;entryX=1;entryY=0.5;entryDx=0;entryDy=0;" edge="1" source="38" target="38" parent="1">
                    <mxGeometry width="50" height="50" relative="1" as="geometry">
                        <mxPoint x="550" y="330" as="sourcePoint"/>
                        <mxPoint x="600" y="280" as="targetPoint"/>
                    </mxGeometry>
                </mxCell>
                <mxCell id="41" value="" style="endArrow=none;html=1;fontSize=20;exitX=0;exitY=0.75;exitDx=0;exitDy=0;entryX=1;entryY=0.75;entryDx=0;entryDy=0;" edge="1" source="38" target="38" parent="1">
                    <mxGeometry width="50" height="50" relative="1" as="geometry">
                        <mxPoint x="580" y="290" as="sourcePoint"/>
                        <mxPoint x="630" y="240" as="targetPoint"/>
                    </mxGeometry>
                </mxCell>
                <mxCell id="42" value="Class" style="text;html=1;strokeColor=none;fillColor=none;align=center;verticalAlign=middle;whiteSpace=wrap;rounded=0;fontSize=20;" vertex="1" parent="1">
                    <mxGeometry x="580" y="320" width="120" height="40" as="geometry"/>
                </mxCell>
                <mxCell id="43" value="-" style="text;html=1;strokeColor=none;fillColor=none;align=center;verticalAlign=middle;whiteSpace=wrap;rounded=0;fontSize=20;" vertex="1" parent="1">
                    <mxGeometry x="580" y="360" width="120" height="40" as="geometry"/>
                </mxCell>
                <mxCell id="44" value="1" style="text;html=1;strokeColor=none;fillColor=none;align=center;verticalAlign=middle;whiteSpace=wrap;rounded=0;fontSize=20;" vertex="1" parent="1">
                    <mxGeometry x="580" y="400" width="120" height="40" as="geometry"/>
                </mxCell>
                <mxCell id="60" style="edgeStyle=none;html=1;exitX=0.5;exitY=1;exitDx=0;exitDy=0;entryX=0;entryY=0.5;entryDx=0;entryDy=0;fontSize=20;" edge="1" parent="1">
                    <mxGeometry relative="1" as="geometry">
                        <mxPoint x="740.3599999999999" y="500" as="targetPoint"/>
                        <Array as="points">
                            <mxPoint x="640" y="500"/>
                        </Array>
                        <mxPoint x="640" y="480" as="sourcePoint"/>
                    </mxGeometry>
                </mxCell>
                <mxCell id="76" style="edgeStyle=none;html=1;exitX=1;exitY=0.5;exitDx=0;exitDy=0;entryX=0;entryY=0.5;entryDx=0;entryDy=0;fontSize=20;" edge="1" parent="1" source="46" target="71">
                    <mxGeometry relative="1" as="geometry"/>
                </mxCell>
                <mxCell id="46" value="" style="rounded=0;whiteSpace=wrap;html=1;fontSize=20;" vertex="1" parent="1">
                    <mxGeometry x="740.3599999999999" y="400" width="120" height="200" as="geometry"/>
                </mxCell>
                <mxCell id="47" value="" style="endArrow=none;html=1;fontSize=20;exitX=0.002;exitY=0.139;exitDx=0;exitDy=0;exitPerimeter=0;entryX=0.997;entryY=0.138;entryDx=0;entryDy=0;entryPerimeter=0;" edge="1" source="46" target="46" parent="1">
                    <mxGeometry width="50" height="50" relative="1" as="geometry">
                        <mxPoint x="870.3599999999999" y="470" as="sourcePoint"/>
                        <mxPoint x="920.3599999999999" y="420" as="targetPoint"/>
                    </mxGeometry>
                </mxCell>
                <mxCell id="48" value="" style="endArrow=none;html=1;fontSize=20;exitX=0.004;exitY=0.278;exitDx=0;exitDy=0;exitPerimeter=0;entryX=1.002;entryY=0.28;entryDx=0;entryDy=0;entryPerimeter=0;" edge="1" source="46" target="46" parent="1">
                    <mxGeometry width="50" height="50" relative="1" as="geometry">
                        <mxPoint x="690.3599999999999" y="490" as="sourcePoint"/>
                        <mxPoint x="740.3599999999999" y="440" as="targetPoint"/>
                    </mxGeometry>
                </mxCell>
                <mxCell id="49" value="" style="endArrow=none;html=1;fontSize=20;entryX=0.999;entryY=0.42;entryDx=0;entryDy=0;entryPerimeter=0;exitX=-0.003;exitY=0.42;exitDx=0;exitDy=0;exitPerimeter=0;" edge="1" source="46" target="46" parent="1">
                    <mxGeometry width="50" height="50" relative="1" as="geometry">
                        <mxPoint x="690.3599999999999" y="520" as="sourcePoint"/>
                        <mxPoint x="740.3599999999999" y="470" as="targetPoint"/>
                    </mxGeometry>
                </mxCell>
                <mxCell id="50" value="" style="endArrow=none;html=1;fontSize=20;exitX=0;exitY=0.561;exitDx=0;exitDy=0;exitPerimeter=0;entryX=0.999;entryY=0.561;entryDx=0;entryDy=0;entryPerimeter=0;" edge="1" source="46" target="46" parent="1">
                    <mxGeometry width="50" height="50" relative="1" as="geometry">
                        <mxPoint x="880.3599999999999" y="550" as="sourcePoint"/>
                        <mxPoint x="890.3599999999999" y="557" as="targetPoint"/>
                    </mxGeometry>
                </mxCell>
                <mxCell id="51" value="" style="endArrow=none;html=1;fontSize=20;exitX=0.004;exitY=0.697;exitDx=0;exitDy=0;exitPerimeter=0;entryX=1.002;entryY=0.697;entryDx=0;entryDy=0;entryPerimeter=0;" edge="1" source="46" target="46" parent="1">
                    <mxGeometry width="50" height="50" relative="1" as="geometry">
                        <mxPoint x="870.3599999999999" y="610" as="sourcePoint"/>
                        <mxPoint x="920.3599999999999" y="560" as="targetPoint"/>
                    </mxGeometry>
                </mxCell>
                <mxCell id="52" value="" style="endArrow=none;html=1;fontSize=20;exitX=-0.002;exitY=0.84;exitDx=0;exitDy=0;exitPerimeter=0;entryX=1.001;entryY=0.835;entryDx=0;entryDy=0;entryPerimeter=0;" edge="1" source="46" target="46" parent="1">
                    <mxGeometry width="50" height="50" relative="1" as="geometry">
                        <mxPoint x="900.3599999999999" y="650" as="sourcePoint"/>
                        <mxPoint x="950.3599999999999" y="600" as="targetPoint"/>
                    </mxGeometry>
                </mxCell>
                <mxCell id="53" value="Fld" style="text;html=1;strokeColor=none;fillColor=none;align=center;verticalAlign=middle;whiteSpace=wrap;rounded=0;fontSize=20;" vertex="1" parent="1">
                    <mxGeometry x="740.3599999999999" y="400" width="120" height="30" as="geometry"/>
                </mxCell>
                <mxCell id="54" value="d" style="text;html=1;strokeColor=none;fillColor=none;align=center;verticalAlign=middle;whiteSpace=wrap;rounded=0;fontSize=20;" vertex="1" parent="1">
                    <mxGeometry x="740.3599999999999" y="430" width="120" height="20" as="geometry"/>
                </mxCell>
                <mxCell id="55" value="intType" style="text;html=1;strokeColor=none;fillColor=none;align=center;verticalAlign=middle;whiteSpace=wrap;rounded=0;fontSize=20;" vertex="1" parent="1">
                    <mxGeometry x="740.3599999999999" y="460" width="120" height="20" as="geometry"/>
                </mxCell>
                <mxCell id="57" value="Adr = 1" style="text;html=1;strokeColor=none;fillColor=none;align=center;verticalAlign=middle;whiteSpace=wrap;rounded=0;fontSize=20;" vertex="1" parent="1">
                    <mxGeometry x="740.3599999999999" y="510" width="120" height="30" as="geometry"/>
                </mxCell>
                <mxCell id="58" value="Level = 1" style="text;html=1;strokeColor=none;fillColor=none;align=center;verticalAlign=middle;whiteSpace=wrap;rounded=0;fontSize=20;" vertex="1" parent="1">
                    <mxGeometry x="740.3599999999999" y="540" width="120" height="30" as="geometry"/>
                </mxCell>
                <mxCell id="61" value="" style="rounded=0;whiteSpace=wrap;html=1;fontSize=20;" vertex="1" parent="1">
                    <mxGeometry x="940.3599999999999" y="400" width="120" height="200" as="geometry"/>
                </mxCell>
                <mxCell id="62" value="" style="endArrow=none;html=1;fontSize=20;exitX=0.002;exitY=0.139;exitDx=0;exitDy=0;exitPerimeter=0;entryX=0.997;entryY=0.138;entryDx=0;entryDy=0;entryPerimeter=0;" edge="1" source="61" target="61" parent="1">
                    <mxGeometry width="50" height="50" relative="1" as="geometry">
                        <mxPoint x="1070.36" y="470" as="sourcePoint"/>
                        <mxPoint x="1120.36" y="420" as="targetPoint"/>
                    </mxGeometry>
                </mxCell>
                <mxCell id="63" value="" style="endArrow=none;html=1;fontSize=20;exitX=0.004;exitY=0.278;exitDx=0;exitDy=0;exitPerimeter=0;entryX=1.002;entryY=0.28;entryDx=0;entryDy=0;entryPerimeter=0;" edge="1" source="61" target="61" parent="1">
                    <mxGeometry width="50" height="50" relative="1" as="geometry">
                        <mxPoint x="890.3599999999999" y="490" as="sourcePoint"/>
                        <mxPoint x="940.3599999999999" y="440" as="targetPoint"/>
                    </mxGeometry>
                </mxCell>
                <mxCell id="64" value="" style="endArrow=none;html=1;fontSize=20;entryX=0.999;entryY=0.42;entryDx=0;entryDy=0;entryPerimeter=0;exitX=-0.003;exitY=0.42;exitDx=0;exitDy=0;exitPerimeter=0;" edge="1" source="61" target="61" parent="1">
                    <mxGeometry width="50" height="50" relative="1" as="geometry">
                        <mxPoint x="890.3599999999999" y="520" as="sourcePoint"/>
                        <mxPoint x="940.3599999999999" y="470" as="targetPoint"/>
                    </mxGeometry>
                </mxCell>
                <mxCell id="65" value="" style="endArrow=none;html=1;fontSize=20;exitX=0;exitY=0.561;exitDx=0;exitDy=0;exitPerimeter=0;entryX=0.999;entryY=0.561;entryDx=0;entryDy=0;entryPerimeter=0;" edge="1" source="61" target="61" parent="1">
                    <mxGeometry width="50" height="50" relative="1" as="geometry">
                        <mxPoint x="1080.36" y="550" as="sourcePoint"/>
                        <mxPoint x="1090.36" y="557" as="targetPoint"/>
                    </mxGeometry>
                </mxCell>
                <mxCell id="66" value="" style="endArrow=none;html=1;fontSize=20;exitX=0.004;exitY=0.697;exitDx=0;exitDy=0;exitPerimeter=0;entryX=1.002;entryY=0.697;entryDx=0;entryDy=0;entryPerimeter=0;" edge="1" source="61" target="61" parent="1">
                    <mxGeometry width="50" height="50" relative="1" as="geometry">
                        <mxPoint x="1070.36" y="610" as="sourcePoint"/>
                        <mxPoint x="1120.36" y="560" as="targetPoint"/>
                    </mxGeometry>
                </mxCell>
                <mxCell id="67" value="" style="endArrow=none;html=1;fontSize=20;exitX=-0.002;exitY=0.84;exitDx=0;exitDy=0;exitPerimeter=0;entryX=1.001;entryY=0.835;entryDx=0;entryDy=0;entryPerimeter=0;" edge="1" source="61" target="61" parent="1">
                    <mxGeometry width="50" height="50" relative="1" as="geometry">
                        <mxPoint x="1100.36" y="650" as="sourcePoint"/>
                        <mxPoint x="1150.36" y="600" as="targetPoint"/>
                    </mxGeometry>
                </mxCell>
                <mxCell id="68" value="Meth" style="text;html=1;strokeColor=none;fillColor=none;align=center;verticalAlign=middle;whiteSpace=wrap;rounded=0;fontSize=20;" vertex="1" parent="1">
                    <mxGeometry x="940.3599999999999" y="400" width="120" height="30" as="geometry"/>
                </mxCell>
                <mxCell id="69" value="m" style="text;html=1;strokeColor=none;fillColor=none;align=center;verticalAlign=middle;whiteSpace=wrap;rounded=0;fontSize=20;" vertex="1" parent="1">
                    <mxGeometry x="940.3599999999999" y="430" width="120" height="20" as="geometry"/>
                </mxCell>
                <mxCell id="70" value="intType" style="text;html=1;strokeColor=none;fillColor=none;align=center;verticalAlign=middle;whiteSpace=wrap;rounded=0;fontSize=20;" vertex="1" parent="1">
                    <mxGeometry x="940.3599999999999" y="460" width="120" height="20" as="geometry"/>
                </mxCell>
                <mxCell id="71" value="-" style="text;html=1;strokeColor=none;fillColor=none;align=center;verticalAlign=middle;whiteSpace=wrap;rounded=0;fontSize=20;" vertex="1" parent="1">
                    <mxGeometry x="940.3599999999999" y="490" width="120" height="20" as="geometry"/>
                </mxCell>
                <mxCell id="72" value="Adr = ?" style="text;html=1;strokeColor=none;fillColor=none;align=center;verticalAlign=middle;whiteSpace=wrap;rounded=0;fontSize=20;" vertex="1" parent="1">
                    <mxGeometry x="940.3599999999999" y="510" width="120" height="30" as="geometry"/>
                </mxCell>
                <mxCell id="73" value="Level = 1" style="text;html=1;strokeColor=none;fillColor=none;align=center;verticalAlign=middle;whiteSpace=wrap;rounded=0;fontSize=20;" vertex="1" parent="1">
                    <mxGeometry x="940.3599999999999" y="540" width="120" height="30" as="geometry"/>
                </mxCell>
                <mxCell id="77" value="" style="endArrow=classic;html=1;fontSize=20;exitX=0.992;exitY=0.347;exitDx=0;exitDy=0;exitPerimeter=0;entryX=0.5;entryY=0;entryDx=0;entryDy=0;" edge="1" parent="1" source="23" target="42">
                    <mxGeometry width="50" height="50" relative="1" as="geometry">
                        <mxPoint x="720" y="170" as="sourcePoint"/>
                        <mxPoint x="770" y="120" as="targetPoint"/>
                        <Array as="points">
                            <mxPoint x="640" y="149"/>
                            <mxPoint x="640" y="260"/>
                        </Array>
                    </mxGeometry>
                </mxCell>
                <mxCell id="78" value="" style="rounded=0;whiteSpace=wrap;html=1;fontSize=20;" vertex="1" parent="1">
                    <mxGeometry x="680.3599999999999" y="80" width="120" height="200" as="geometry"/>
                </mxCell>
                <mxCell id="79" value="" style="endArrow=none;html=1;fontSize=20;exitX=0.002;exitY=0.139;exitDx=0;exitDy=0;exitPerimeter=0;entryX=0.997;entryY=0.138;entryDx=0;entryDy=0;entryPerimeter=0;" edge="1" source="78" target="78" parent="1">
                    <mxGeometry width="50" height="50" relative="1" as="geometry">
                        <mxPoint x="810.3599999999999" y="150" as="sourcePoint"/>
                        <mxPoint x="860.3599999999999" y="100" as="targetPoint"/>
                    </mxGeometry>
                </mxCell>
                <mxCell id="80" value="" style="endArrow=none;html=1;fontSize=20;exitX=0.004;exitY=0.278;exitDx=0;exitDy=0;exitPerimeter=0;entryX=1.002;entryY=0.28;entryDx=0;entryDy=0;entryPerimeter=0;" edge="1" source="78" target="78" parent="1">
                    <mxGeometry width="50" height="50" relative="1" as="geometry">
                        <mxPoint x="630.3599999999999" y="170" as="sourcePoint"/>
                        <mxPoint x="680.3599999999999" y="120" as="targetPoint"/>
                    </mxGeometry>
                </mxCell>
                <mxCell id="81" value="" style="endArrow=none;html=1;fontSize=20;entryX=0.999;entryY=0.42;entryDx=0;entryDy=0;entryPerimeter=0;exitX=-0.003;exitY=0.42;exitDx=0;exitDy=0;exitPerimeter=0;" edge="1" source="78" target="78" parent="1">
                    <mxGeometry width="50" height="50" relative="1" as="geometry">
                        <mxPoint x="630.3599999999999" y="200" as="sourcePoint"/>
                        <mxPoint x="680.3599999999999" y="150" as="targetPoint"/>
                    </mxGeometry>
                </mxCell>
                <mxCell id="82" value="" style="endArrow=none;html=1;fontSize=20;exitX=0;exitY=0.561;exitDx=0;exitDy=0;exitPerimeter=0;entryX=0.999;entryY=0.561;entryDx=0;entryDy=0;entryPerimeter=0;" edge="1" source="78" target="78" parent="1">
                    <mxGeometry width="50" height="50" relative="1" as="geometry">
                        <mxPoint x="820.3599999999999" y="230" as="sourcePoint"/>
                        <mxPoint x="830.3599999999999" y="237" as="targetPoint"/>
                    </mxGeometry>
                </mxCell>
                <mxCell id="83" value="" style="endArrow=none;html=1;fontSize=20;exitX=0.004;exitY=0.697;exitDx=0;exitDy=0;exitPerimeter=0;entryX=1.002;entryY=0.697;entryDx=0;entryDy=0;entryPerimeter=0;" edge="1" source="78" target="78" parent="1">
                    <mxGeometry width="50" height="50" relative="1" as="geometry">
                        <mxPoint x="810.3599999999999" y="290" as="sourcePoint"/>
                        <mxPoint x="860.3599999999999" y="240" as="targetPoint"/>
                    </mxGeometry>
                </mxCell>
                <mxCell id="84" value="" style="endArrow=none;html=1;fontSize=20;exitX=-0.002;exitY=0.84;exitDx=0;exitDy=0;exitPerimeter=0;entryX=1.001;entryY=0.835;entryDx=0;entryDy=0;entryPerimeter=0;" edge="1" source="78" target="78" parent="1">
                    <mxGeometry width="50" height="50" relative="1" as="geometry">
                        <mxPoint x="840.3599999999999" y="330" as="sourcePoint"/>
                        <mxPoint x="890.3599999999999" y="280" as="targetPoint"/>
                    </mxGeometry>
                </mxCell>
                <mxCell id="85" value="Type" style="text;html=1;strokeColor=none;fillColor=none;align=center;verticalAlign=middle;whiteSpace=wrap;rounded=0;fontSize=20;" vertex="1" parent="1">
                    <mxGeometry x="680.3599999999999" y="80" width="120" height="30" as="geometry"/>
                </mxCell>
                <mxCell id="86" value="DC" style="text;html=1;strokeColor=none;fillColor=none;align=center;verticalAlign=middle;whiteSpace=wrap;rounded=0;fontSize=20;" vertex="1" parent="1">
                    <mxGeometry x="680.3599999999999" y="110" width="120" height="20" as="geometry"/>
                </mxCell>
                <mxCell id="88" value="-" style="text;html=1;strokeColor=none;fillColor=none;align=center;verticalAlign=middle;whiteSpace=wrap;rounded=0;fontSize=20;" vertex="1" parent="1">
                    <mxGeometry x="680.3599999999999" y="170" width="120" height="20" as="geometry"/>
                </mxCell>
                <mxCell id="93" value="" style="rounded=1;whiteSpace=wrap;html=1;fontSize=20;" vertex="1" parent="1">
                    <mxGeometry x="580" y="560" width="120" height="160" as="geometry"/>
                </mxCell>
                <mxCell id="94" value="" style="endArrow=none;html=1;fontSize=20;exitX=0;exitY=0.25;exitDx=0;exitDy=0;entryX=1;entryY=0.25;entryDx=0;entryDy=0;" edge="1" source="93" target="93" parent="1">
                    <mxGeometry width="50" height="50" relative="1" as="geometry">
                        <mxPoint x="600" y="550" as="sourcePoint"/>
                        <mxPoint x="650" y="500" as="targetPoint"/>
                    </mxGeometry>
                </mxCell>
                <mxCell id="95" value="" style="endArrow=none;html=1;fontSize=20;exitX=0;exitY=0.5;exitDx=0;exitDy=0;entryX=1;entryY=0.5;entryDx=0;entryDy=0;" edge="1" source="93" target="93" parent="1">
                    <mxGeometry width="50" height="50" relative="1" as="geometry">
                        <mxPoint x="550" y="570" as="sourcePoint"/>
                        <mxPoint x="600" y="520" as="targetPoint"/>
                    </mxGeometry>
                </mxCell>
                <mxCell id="96" value="" style="endArrow=none;html=1;fontSize=20;exitX=0;exitY=0.75;exitDx=0;exitDy=0;entryX=1;entryY=0.75;entryDx=0;entryDy=0;" edge="1" source="93" target="93" parent="1">
                    <mxGeometry width="50" height="50" relative="1" as="geometry">
                        <mxPoint x="580" y="530" as="sourcePoint"/>
                        <mxPoint x="630" y="480" as="targetPoint"/>
                    </mxGeometry>
                </mxCell>
                <mxCell id="97" value="Class" style="text;html=1;strokeColor=none;fillColor=none;align=center;verticalAlign=middle;whiteSpace=wrap;rounded=0;fontSize=20;" vertex="1" parent="1">
                    <mxGeometry x="580" y="560" width="120" height="40" as="geometry"/>
                </mxCell>
                <mxCell id="98" value="clsC" style="text;html=1;strokeColor=none;fillColor=none;align=center;verticalAlign=middle;whiteSpace=wrap;rounded=0;fontSize=20;" vertex="1" parent="1">
                    <mxGeometry x="580" y="600" width="120" height="40" as="geometry"/>
                </mxCell>
                <mxCell id="99" value="1" style="text;html=1;strokeColor=none;fillColor=none;align=center;verticalAlign=middle;whiteSpace=wrap;rounded=0;fontSize=20;" vertex="1" parent="1">
                    <mxGeometry x="580" y="640" width="120" height="40" as="geometry"/>
                </mxCell>
                <mxCell id="197" style="edgeStyle=none;html=1;exitX=0.5;exitY=1;exitDx=0;exitDy=0;entryX=0;entryY=0.5;entryDx=0;entryDy=0;fontSize=20;" edge="1" parent="1" source="100" target="145">
                    <mxGeometry relative="1" as="geometry">
                        <Array as="points">
                            <mxPoint x="640" y="860"/>
                        </Array>
                    </mxGeometry>
                </mxCell>
                <mxCell id="100" value="-" style="text;html=1;strokeColor=none;fillColor=none;align=center;verticalAlign=middle;whiteSpace=wrap;rounded=0;fontSize=20;" vertex="1" parent="1">
                    <mxGeometry x="580" y="680" width="120" height="40" as="geometry"/>
                </mxCell>
                <mxCell id="101" value="clsC" style="text;html=1;strokeColor=none;fillColor=none;align=center;verticalAlign=middle;whiteSpace=wrap;rounded=0;fontSize=20;" vertex="1" parent="1">
                    <mxGeometry x="480" y="385" width="60" height="30" as="geometry"/>
                </mxCell>
                <mxCell id="102" value="" style="endArrow=classic;html=1;fontSize=20;exitX=1;exitY=0.5;exitDx=0;exitDy=0;entryX=0;entryY=0;entryDx=0;entryDy=0;" edge="1" parent="1" source="101" target="44">
                    <mxGeometry width="50" height="50" relative="1" as="geometry">
                        <mxPoint x="490" y="500" as="sourcePoint"/>
                        <mxPoint x="540" y="450" as="targetPoint"/>
                    </mxGeometry>
                </mxCell>
                <mxCell id="103" value="" style="endArrow=classic;html=1;fontSize=20;exitX=1;exitY=0.5;exitDx=0;exitDy=0;entryX=0.5;entryY=0;entryDx=0;entryDy=0;" edge="1" parent="1" target="97">
                    <mxGeometry width="50" height="50" relative="1" as="geometry">
                        <mxPoint x="800.3599999999999" y="150" as="sourcePoint"/>
                        <mxPoint x="950" y="180" as="targetPoint"/>
                        <Array as="points">
                            <mxPoint x="850" y="150"/>
                            <mxPoint x="850" y="360"/>
                            <mxPoint x="720" y="360"/>
                            <mxPoint x="720" y="520"/>
                            <mxPoint x="640" y="520"/>
                        </Array>
                    </mxGeometry>
                </mxCell>
                <mxCell id="106" value="" style="rounded=0;whiteSpace=wrap;html=1;fontSize=20;" vertex="1" parent="1">
                    <mxGeometry x="80" y="840" width="120" height="80" as="geometry"/>
                </mxCell>
                <mxCell id="107" value="" style="endArrow=none;html=1;exitX=0;exitY=0.5;exitDx=0;exitDy=0;entryX=1;entryY=0.5;entryDx=0;entryDy=0;fontSize=20;" edge="1" source="106" target="106" parent="1">
                    <mxGeometry width="50" height="50" relative="1" as="geometry">
                        <mxPoint x="90" y="1030" as="sourcePoint"/>
                        <mxPoint x="140" y="980" as="targetPoint"/>
                    </mxGeometry>
                </mxCell>
                <mxCell id="108" value="" style="endArrow=none;html=1;exitX=0.5;exitY=0;exitDx=0;exitDy=0;fontSize=20;" edge="1" source="106" parent="1">
                    <mxGeometry width="50" height="50" relative="1" as="geometry">
                        <mxPoint x="180" y="1010" as="sourcePoint"/>
                        <mxPoint x="140" y="880" as="targetPoint"/>
                    </mxGeometry>
                </mxCell>
                <mxCell id="109" value="&lt;font style=&quot;font-size: 20px&quot;&gt;1&lt;/font&gt;" style="text;html=1;strokeColor=none;fillColor=none;align=center;verticalAlign=middle;whiteSpace=wrap;rounded=0;fontSize=20;" vertex="1" parent="1">
                    <mxGeometry x="80" y="880" width="120" height="40" as="geometry"/>
                </mxCell>
                <mxCell id="110" value="" style="endArrow=classic;html=1;fontSize=20;exitX=0.25;exitY=0;exitDx=0;exitDy=0;entryX=0.25;entryY=1;entryDx=0;entryDy=0;" edge="1" source="106" parent="1" target="5">
                    <mxGeometry width="50" height="50" relative="1" as="geometry">
                        <mxPoint x="90" y="1050" as="sourcePoint"/>
                        <mxPoint x="110" y="770" as="targetPoint"/>
                    </mxGeometry>
                </mxCell>
                <mxCell id="111" value="" style="endArrow=classic;html=1;fontSize=20;" edge="1" parent="1">
                    <mxGeometry width="50" height="50" relative="1" as="geometry">
                        <mxPoint x="200" y="860" as="sourcePoint"/>
                        <mxPoint x="280" y="860" as="targetPoint"/>
                    </mxGeometry>
                </mxCell>
                <mxCell id="142" style="edgeStyle=none;html=1;exitX=1;exitY=0.5;exitDx=0;exitDy=0;entryX=0;entryY=0.5;entryDx=0;entryDy=0;fontSize=20;" edge="1" parent="1" source="112" target="138">
                    <mxGeometry relative="1" as="geometry"/>
                </mxCell>
                <mxCell id="112" value="" style="rounded=0;whiteSpace=wrap;html=1;fontSize=20;" vertex="1" parent="1">
                    <mxGeometry x="1080.36" y="640" width="120" height="200" as="geometry"/>
                </mxCell>
                <mxCell id="113" value="" style="endArrow=none;html=1;fontSize=20;exitX=0.002;exitY=0.139;exitDx=0;exitDy=0;exitPerimeter=0;entryX=0.997;entryY=0.138;entryDx=0;entryDy=0;entryPerimeter=0;" edge="1" source="112" target="112" parent="1">
                    <mxGeometry width="50" height="50" relative="1" as="geometry">
                        <mxPoint x="1210.36" y="710" as="sourcePoint"/>
                        <mxPoint x="1260.36" y="660" as="targetPoint"/>
                    </mxGeometry>
                </mxCell>
                <mxCell id="114" value="" style="endArrow=none;html=1;fontSize=20;exitX=0.004;exitY=0.278;exitDx=0;exitDy=0;exitPerimeter=0;entryX=1.002;entryY=0.28;entryDx=0;entryDy=0;entryPerimeter=0;" edge="1" source="112" target="112" parent="1">
                    <mxGeometry width="50" height="50" relative="1" as="geometry">
                        <mxPoint x="1030.36" y="730" as="sourcePoint"/>
                        <mxPoint x="1080.36" y="680" as="targetPoint"/>
                    </mxGeometry>
                </mxCell>
                <mxCell id="115" value="" style="endArrow=none;html=1;fontSize=20;entryX=0.999;entryY=0.42;entryDx=0;entryDy=0;entryPerimeter=0;exitX=-0.003;exitY=0.42;exitDx=0;exitDy=0;exitPerimeter=0;" edge="1" source="112" target="112" parent="1">
                    <mxGeometry width="50" height="50" relative="1" as="geometry">
                        <mxPoint x="1030.36" y="760" as="sourcePoint"/>
                        <mxPoint x="1080.36" y="710" as="targetPoint"/>
                    </mxGeometry>
                </mxCell>
                <mxCell id="116" value="" style="endArrow=none;html=1;fontSize=20;exitX=0;exitY=0.561;exitDx=0;exitDy=0;exitPerimeter=0;entryX=0.999;entryY=0.561;entryDx=0;entryDy=0;entryPerimeter=0;" edge="1" source="112" target="112" parent="1">
                    <mxGeometry width="50" height="50" relative="1" as="geometry">
                        <mxPoint x="1220.36" y="790" as="sourcePoint"/>
                        <mxPoint x="1230.36" y="797" as="targetPoint"/>
                    </mxGeometry>
                </mxCell>
                <mxCell id="117" value="" style="endArrow=none;html=1;fontSize=20;exitX=0.004;exitY=0.697;exitDx=0;exitDy=0;exitPerimeter=0;entryX=1.002;entryY=0.697;entryDx=0;entryDy=0;entryPerimeter=0;" edge="1" source="112" target="112" parent="1">
                    <mxGeometry width="50" height="50" relative="1" as="geometry">
                        <mxPoint x="1210.36" y="850" as="sourcePoint"/>
                        <mxPoint x="1260.36" y="800" as="targetPoint"/>
                    </mxGeometry>
                </mxCell>
                <mxCell id="118" value="" style="endArrow=none;html=1;fontSize=20;exitX=-0.002;exitY=0.84;exitDx=0;exitDy=0;exitPerimeter=0;entryX=1.001;entryY=0.835;entryDx=0;entryDy=0;entryPerimeter=0;" edge="1" source="112" target="112" parent="1">
                    <mxGeometry width="50" height="50" relative="1" as="geometry">
                        <mxPoint x="1240.36" y="890" as="sourcePoint"/>
                        <mxPoint x="1290.36" y="840" as="targetPoint"/>
                    </mxGeometry>
                </mxCell>
                <mxCell id="119" value="Var" style="text;html=1;strokeColor=none;fillColor=none;align=center;verticalAlign=middle;whiteSpace=wrap;rounded=0;fontSize=20;" vertex="1" parent="1">
                    <mxGeometry x="1080.36" y="640" width="120" height="30" as="geometry"/>
                </mxCell>
                <mxCell id="120" value="this" style="text;html=1;strokeColor=none;fillColor=none;align=center;verticalAlign=middle;whiteSpace=wrap;rounded=0;fontSize=20;" vertex="1" parent="1">
                    <mxGeometry x="1080.36" y="670" width="120" height="20" as="geometry"/>
                </mxCell>
                <mxCell id="121" value="clsC" style="text;html=1;strokeColor=none;fillColor=none;align=center;verticalAlign=middle;whiteSpace=wrap;rounded=0;fontSize=20;" vertex="1" parent="1">
                    <mxGeometry x="1080.36" y="700" width="120" height="20" as="geometry"/>
                </mxCell>
                <mxCell id="123" value="Adr = 0" style="text;html=1;strokeColor=none;fillColor=none;align=center;verticalAlign=middle;whiteSpace=wrap;rounded=0;fontSize=20;" vertex="1" parent="1">
                    <mxGeometry x="1080.36" y="750" width="120" height="30" as="geometry"/>
                </mxCell>
                <mxCell id="124" value="Level = 1" style="text;html=1;strokeColor=none;fillColor=none;align=center;verticalAlign=middle;whiteSpace=wrap;rounded=0;fontSize=20;" vertex="1" parent="1">
                    <mxGeometry x="1080.36" y="780" width="120" height="30" as="geometry"/>
                </mxCell>
                <mxCell id="127" style="edgeStyle=none;html=1;exitX=1;exitY=0.5;exitDx=0;exitDy=0;entryX=0;entryY=0;entryDx=0;entryDy=0;fontSize=20;" edge="1" parent="1" source="126" target="99">
                    <mxGeometry relative="1" as="geometry"/>
                </mxCell>
                <mxCell id="126" value="clsDC" style="text;html=1;strokeColor=none;fillColor=none;align=center;verticalAlign=middle;whiteSpace=wrap;rounded=0;fontSize=20;" vertex="1" parent="1">
                    <mxGeometry x="470" y="625" width="60" height="30" as="geometry"/>
                </mxCell>
                <mxCell id="128" value="" style="rounded=0;whiteSpace=wrap;html=1;fontSize=20;" vertex="1" parent="1">
                    <mxGeometry x="1280.36" y="640" width="120" height="200" as="geometry"/>
                </mxCell>
                <mxCell id="129" value="" style="endArrow=none;html=1;fontSize=20;exitX=0.002;exitY=0.139;exitDx=0;exitDy=0;exitPerimeter=0;entryX=0.997;entryY=0.138;entryDx=0;entryDy=0;entryPerimeter=0;" edge="1" source="128" target="128" parent="1">
                    <mxGeometry width="50" height="50" relative="1" as="geometry">
                        <mxPoint x="1410.36" y="710" as="sourcePoint"/>
                        <mxPoint x="1460.36" y="660" as="targetPoint"/>
                    </mxGeometry>
                </mxCell>
                <mxCell id="130" value="" style="endArrow=none;html=1;fontSize=20;exitX=0.004;exitY=0.278;exitDx=0;exitDy=0;exitPerimeter=0;entryX=1.002;entryY=0.28;entryDx=0;entryDy=0;entryPerimeter=0;" edge="1" source="128" target="128" parent="1">
                    <mxGeometry width="50" height="50" relative="1" as="geometry">
                        <mxPoint x="1230.36" y="730" as="sourcePoint"/>
                        <mxPoint x="1280.36" y="680" as="targetPoint"/>
                    </mxGeometry>
                </mxCell>
                <mxCell id="131" value="" style="endArrow=none;html=1;fontSize=20;entryX=0.999;entryY=0.42;entryDx=0;entryDy=0;entryPerimeter=0;exitX=-0.003;exitY=0.42;exitDx=0;exitDy=0;exitPerimeter=0;" edge="1" source="128" target="128" parent="1">
                    <mxGeometry width="50" height="50" relative="1" as="geometry">
                        <mxPoint x="1230.36" y="760" as="sourcePoint"/>
                        <mxPoint x="1280.36" y="710" as="targetPoint"/>
                    </mxGeometry>
                </mxCell>
                <mxCell id="132" value="" style="endArrow=none;html=1;fontSize=20;exitX=0;exitY=0.561;exitDx=0;exitDy=0;exitPerimeter=0;entryX=0.999;entryY=0.561;entryDx=0;entryDy=0;entryPerimeter=0;" edge="1" source="128" target="128" parent="1">
                    <mxGeometry width="50" height="50" relative="1" as="geometry">
                        <mxPoint x="1420.36" y="790" as="sourcePoint"/>
                        <mxPoint x="1430.36" y="797" as="targetPoint"/>
                    </mxGeometry>
                </mxCell>
                <mxCell id="133" value="" style="endArrow=none;html=1;fontSize=20;exitX=0.004;exitY=0.697;exitDx=0;exitDy=0;exitPerimeter=0;entryX=1.002;entryY=0.697;entryDx=0;entryDy=0;entryPerimeter=0;" edge="1" source="128" target="128" parent="1">
                    <mxGeometry width="50" height="50" relative="1" as="geometry">
                        <mxPoint x="1410.36" y="850" as="sourcePoint"/>
                        <mxPoint x="1460.36" y="800" as="targetPoint"/>
                    </mxGeometry>
                </mxCell>
                <mxCell id="134" value="" style="endArrow=none;html=1;fontSize=20;exitX=-0.002;exitY=0.84;exitDx=0;exitDy=0;exitPerimeter=0;entryX=1.001;entryY=0.835;entryDx=0;entryDy=0;entryPerimeter=0;" edge="1" source="128" target="128" parent="1">
                    <mxGeometry width="50" height="50" relative="1" as="geometry">
                        <mxPoint x="1440.36" y="890" as="sourcePoint"/>
                        <mxPoint x="1490.36" y="840" as="targetPoint"/>
                    </mxGeometry>
                </mxCell>
                <mxCell id="135" value="Var" style="text;html=1;strokeColor=none;fillColor=none;align=center;verticalAlign=middle;whiteSpace=wrap;rounded=0;fontSize=20;" vertex="1" parent="1">
                    <mxGeometry x="1280.36" y="640" width="120" height="30" as="geometry"/>
                </mxCell>
                <mxCell id="136" value="c" style="text;html=1;strokeColor=none;fillColor=none;align=center;verticalAlign=middle;whiteSpace=wrap;rounded=0;fontSize=20;" vertex="1" parent="1">
                    <mxGeometry x="1280.36" y="670" width="120" height="20" as="geometry"/>
                </mxCell>
                <mxCell id="137" value="intType" style="text;html=1;strokeColor=none;fillColor=none;align=center;verticalAlign=middle;whiteSpace=wrap;rounded=0;fontSize=20;" vertex="1" parent="1">
                    <mxGeometry x="1280.36" y="700" width="120" height="20" as="geometry"/>
                </mxCell>
                <mxCell id="138" value="-" style="text;html=1;strokeColor=none;fillColor=none;align=center;verticalAlign=middle;whiteSpace=wrap;rounded=0;fontSize=20;" vertex="1" parent="1">
                    <mxGeometry x="1280.36" y="730" width="120" height="20" as="geometry"/>
                </mxCell>
                <mxCell id="139" value="Adr = 1" style="text;html=1;strokeColor=none;fillColor=none;align=center;verticalAlign=middle;whiteSpace=wrap;rounded=0;fontSize=20;" vertex="1" parent="1">
                    <mxGeometry x="1280.36" y="750" width="120" height="30" as="geometry"/>
                </mxCell>
                <mxCell id="140" value="Level = 1" style="text;html=1;strokeColor=none;fillColor=none;align=center;verticalAlign=middle;whiteSpace=wrap;rounded=0;fontSize=20;" vertex="1" parent="1">
                    <mxGeometry x="1280.36" y="780" width="120" height="30" as="geometry"/>
                </mxCell>
                <mxCell id="143" value="" style="endArrow=classic;html=1;fontSize=20;exitX=0.5;exitY=1;exitDx=0;exitDy=0;entryX=0;entryY=0.5;entryDx=0;entryDy=0;" edge="1" parent="1" source="61" target="112">
                    <mxGeometry width="50" height="50" relative="1" as="geometry">
                        <mxPoint x="930" y="730" as="sourcePoint"/>
                        <mxPoint x="980" y="680" as="targetPoint"/>
                        <Array as="points">
                            <mxPoint x="1000" y="740"/>
                        </Array>
                    </mxGeometry>
                </mxCell>
                <mxCell id="144" style="edgeStyle=none;html=1;exitX=1;exitY=0.5;exitDx=0;exitDy=0;entryX=0;entryY=0.5;entryDx=0;entryDy=0;fontSize=20;" edge="1" parent="1" source="145" target="167">
                    <mxGeometry relative="1" as="geometry"/>
                </mxCell>
                <mxCell id="145" value="" style="rounded=0;whiteSpace=wrap;html=1;fontSize=20;" vertex="1" parent="1">
                    <mxGeometry x="740.1199999999999" y="760" width="120" height="200" as="geometry"/>
                </mxCell>
                <mxCell id="146" value="" style="endArrow=none;html=1;fontSize=20;exitX=0.002;exitY=0.139;exitDx=0;exitDy=0;exitPerimeter=0;entryX=0.997;entryY=0.138;entryDx=0;entryDy=0;entryPerimeter=0;" edge="1" parent="1" source="145" target="145">
                    <mxGeometry width="50" height="50" relative="1" as="geometry">
                        <mxPoint x="870.1199999999999" y="830" as="sourcePoint"/>
                        <mxPoint x="920.1199999999999" y="780" as="targetPoint"/>
                    </mxGeometry>
                </mxCell>
                <mxCell id="147" value="" style="endArrow=none;html=1;fontSize=20;exitX=0.004;exitY=0.278;exitDx=0;exitDy=0;exitPerimeter=0;entryX=1.002;entryY=0.28;entryDx=0;entryDy=0;entryPerimeter=0;" edge="1" parent="1" source="145" target="145">
                    <mxGeometry width="50" height="50" relative="1" as="geometry">
                        <mxPoint x="690.1199999999999" y="850" as="sourcePoint"/>
                        <mxPoint x="740.1199999999999" y="800" as="targetPoint"/>
                    </mxGeometry>
                </mxCell>
                <mxCell id="148" value="" style="endArrow=none;html=1;fontSize=20;entryX=0.999;entryY=0.42;entryDx=0;entryDy=0;entryPerimeter=0;exitX=-0.003;exitY=0.42;exitDx=0;exitDy=0;exitPerimeter=0;" edge="1" parent="1" source="145" target="145">
                    <mxGeometry width="50" height="50" relative="1" as="geometry">
                        <mxPoint x="690.1199999999999" y="880" as="sourcePoint"/>
                        <mxPoint x="740.1199999999999" y="830" as="targetPoint"/>
                    </mxGeometry>
                </mxCell>
                <mxCell id="149" value="" style="endArrow=none;html=1;fontSize=20;exitX=0;exitY=0.561;exitDx=0;exitDy=0;exitPerimeter=0;entryX=0.999;entryY=0.561;entryDx=0;entryDy=0;entryPerimeter=0;" edge="1" parent="1" source="145" target="145">
                    <mxGeometry width="50" height="50" relative="1" as="geometry">
                        <mxPoint x="880.1199999999999" y="910" as="sourcePoint"/>
                        <mxPoint x="890.1199999999999" y="917" as="targetPoint"/>
                    </mxGeometry>
                </mxCell>
                <mxCell id="150" value="" style="endArrow=none;html=1;fontSize=20;exitX=0.004;exitY=0.697;exitDx=0;exitDy=0;exitPerimeter=0;entryX=1.002;entryY=0.697;entryDx=0;entryDy=0;entryPerimeter=0;" edge="1" parent="1" source="145" target="145">
                    <mxGeometry width="50" height="50" relative="1" as="geometry">
                        <mxPoint x="870.1199999999999" y="970" as="sourcePoint"/>
                        <mxPoint x="920.1199999999999" y="920" as="targetPoint"/>
                    </mxGeometry>
                </mxCell>
                <mxCell id="151" value="" style="endArrow=none;html=1;fontSize=20;exitX=-0.002;exitY=0.84;exitDx=0;exitDy=0;exitPerimeter=0;entryX=1.001;entryY=0.835;entryDx=0;entryDy=0;entryPerimeter=0;" edge="1" parent="1" source="145" target="145">
                    <mxGeometry width="50" height="50" relative="1" as="geometry">
                        <mxPoint x="900.1199999999999" y="1010" as="sourcePoint"/>
                        <mxPoint x="950.1199999999999" y="960" as="targetPoint"/>
                    </mxGeometry>
                </mxCell>
                <mxCell id="152" value="Fld" style="text;html=1;strokeColor=none;fillColor=none;align=center;verticalAlign=middle;whiteSpace=wrap;rounded=0;fontSize=20;" vertex="1" parent="1">
                    <mxGeometry x="740.1199999999999" y="760" width="120" height="30" as="geometry"/>
                </mxCell>
                <mxCell id="153" value="d" style="text;html=1;strokeColor=none;fillColor=none;align=center;verticalAlign=middle;whiteSpace=wrap;rounded=0;fontSize=20;" vertex="1" parent="1">
                    <mxGeometry x="740.1199999999999" y="790" width="120" height="20" as="geometry"/>
                </mxCell>
                <mxCell id="154" value="intType" style="text;html=1;strokeColor=none;fillColor=none;align=center;verticalAlign=middle;whiteSpace=wrap;rounded=0;fontSize=20;" vertex="1" parent="1">
                    <mxGeometry x="740.1199999999999" y="820" width="120" height="20" as="geometry"/>
                </mxCell>
                <mxCell id="155" value="Adr = 1" style="text;html=1;strokeColor=none;fillColor=none;align=center;verticalAlign=middle;whiteSpace=wrap;rounded=0;fontSize=20;" vertex="1" parent="1">
                    <mxGeometry x="740.1199999999999" y="870" width="120" height="30" as="geometry"/>
                </mxCell>
                <mxCell id="156" value="Level = 1" style="text;html=1;strokeColor=none;fillColor=none;align=center;verticalAlign=middle;whiteSpace=wrap;rounded=0;fontSize=20;" vertex="1" parent="1">
                    <mxGeometry x="740.1199999999999" y="900" width="120" height="30" as="geometry"/>
                </mxCell>
                <mxCell id="157" value="" style="rounded=0;whiteSpace=wrap;html=1;fontSize=20;" vertex="1" parent="1">
                    <mxGeometry x="940.1199999999999" y="760" width="120" height="200" as="geometry"/>
                </mxCell>
                <mxCell id="158" value="" style="endArrow=none;html=1;fontSize=20;exitX=0.002;exitY=0.139;exitDx=0;exitDy=0;exitPerimeter=0;entryX=0.997;entryY=0.138;entryDx=0;entryDy=0;entryPerimeter=0;" edge="1" parent="1" source="157" target="157">
                    <mxGeometry width="50" height="50" relative="1" as="geometry">
                        <mxPoint x="1070.12" y="830" as="sourcePoint"/>
                        <mxPoint x="1120.12" y="780" as="targetPoint"/>
                    </mxGeometry>
                </mxCell>
                <mxCell id="159" value="" style="endArrow=none;html=1;fontSize=20;exitX=0.004;exitY=0.278;exitDx=0;exitDy=0;exitPerimeter=0;entryX=1.002;entryY=0.28;entryDx=0;entryDy=0;entryPerimeter=0;" edge="1" parent="1" source="157" target="157">
                    <mxGeometry width="50" height="50" relative="1" as="geometry">
                        <mxPoint x="890.1199999999999" y="850" as="sourcePoint"/>
                        <mxPoint x="940.1199999999999" y="800" as="targetPoint"/>
                    </mxGeometry>
                </mxCell>
                <mxCell id="160" value="" style="endArrow=none;html=1;fontSize=20;entryX=0.999;entryY=0.42;entryDx=0;entryDy=0;entryPerimeter=0;exitX=-0.003;exitY=0.42;exitDx=0;exitDy=0;exitPerimeter=0;" edge="1" parent="1" source="157" target="157">
                    <mxGeometry width="50" height="50" relative="1" as="geometry">
                        <mxPoint x="890.1199999999999" y="880" as="sourcePoint"/>
                        <mxPoint x="940.1199999999999" y="830" as="targetPoint"/>
                    </mxGeometry>
                </mxCell>
                <mxCell id="161" value="" style="endArrow=none;html=1;fontSize=20;exitX=0;exitY=0.561;exitDx=0;exitDy=0;exitPerimeter=0;entryX=0.999;entryY=0.561;entryDx=0;entryDy=0;entryPerimeter=0;" edge="1" parent="1" source="157" target="157">
                    <mxGeometry width="50" height="50" relative="1" as="geometry">
                        <mxPoint x="1080.12" y="910" as="sourcePoint"/>
                        <mxPoint x="1090.12" y="917" as="targetPoint"/>
                    </mxGeometry>
                </mxCell>
                <mxCell id="162" value="" style="endArrow=none;html=1;fontSize=20;exitX=0.004;exitY=0.697;exitDx=0;exitDy=0;exitPerimeter=0;entryX=1.002;entryY=0.697;entryDx=0;entryDy=0;entryPerimeter=0;" edge="1" parent="1" source="157" target="157">
                    <mxGeometry width="50" height="50" relative="1" as="geometry">
                        <mxPoint x="1070.12" y="970" as="sourcePoint"/>
                        <mxPoint x="1120.12" y="920" as="targetPoint"/>
                    </mxGeometry>
                </mxCell>
                <mxCell id="163" value="" style="endArrow=none;html=1;fontSize=20;exitX=-0.002;exitY=0.84;exitDx=0;exitDy=0;exitPerimeter=0;entryX=1.001;entryY=0.835;entryDx=0;entryDy=0;entryPerimeter=0;" edge="1" parent="1" source="157" target="157">
                    <mxGeometry width="50" height="50" relative="1" as="geometry">
                        <mxPoint x="1100.12" y="1010" as="sourcePoint"/>
                        <mxPoint x="1150.12" y="960" as="targetPoint"/>
                    </mxGeometry>
                </mxCell>
                <mxCell id="164" value="Meth" style="text;html=1;strokeColor=none;fillColor=none;align=center;verticalAlign=middle;whiteSpace=wrap;rounded=0;fontSize=20;" vertex="1" parent="1">
                    <mxGeometry x="940.1199999999999" y="760" width="120" height="30" as="geometry"/>
                </mxCell>
                <mxCell id="165" value="m" style="text;html=1;strokeColor=none;fillColor=none;align=center;verticalAlign=middle;whiteSpace=wrap;rounded=0;fontSize=20;" vertex="1" parent="1">
                    <mxGeometry x="940.1199999999999" y="790" width="120" height="20" as="geometry"/>
                </mxCell>
                <mxCell id="166" value="intType" style="text;html=1;strokeColor=none;fillColor=none;align=center;verticalAlign=middle;whiteSpace=wrap;rounded=0;fontSize=20;" vertex="1" parent="1">
                    <mxGeometry x="940.1199999999999" y="820" width="120" height="20" as="geometry"/>
                </mxCell>
                <mxCell id="167" value="-" style="text;html=1;strokeColor=none;fillColor=none;align=center;verticalAlign=middle;whiteSpace=wrap;rounded=0;fontSize=20;" vertex="1" parent="1">
                    <mxGeometry x="940.1199999999999" y="850" width="120" height="20" as="geometry"/>
                </mxCell>
                <mxCell id="168" value="Adr = ?" style="text;html=1;strokeColor=none;fillColor=none;align=center;verticalAlign=middle;whiteSpace=wrap;rounded=0;fontSize=20;" vertex="1" parent="1">
                    <mxGeometry x="940.1199999999999" y="870" width="120" height="30" as="geometry"/>
                </mxCell>
                <mxCell id="169" value="Level = 1" style="text;html=1;strokeColor=none;fillColor=none;align=center;verticalAlign=middle;whiteSpace=wrap;rounded=0;fontSize=20;" vertex="1" parent="1">
                    <mxGeometry x="940.1199999999999" y="900" width="120" height="30" as="geometry"/>
                </mxCell>
                <mxCell id="170" style="edgeStyle=none;html=1;exitX=1;exitY=0.5;exitDx=0;exitDy=0;entryX=0;entryY=0.5;entryDx=0;entryDy=0;fontSize=20;" edge="1" parent="1" source="171" target="193">
                    <mxGeometry relative="1" as="geometry"/>
                </mxCell>
                <mxCell id="171" value="" style="rounded=0;whiteSpace=wrap;html=1;fontSize=20;" vertex="1" parent="1">
                    <mxGeometry x="1080.12" y="1000" width="120" height="200" as="geometry"/>
                </mxCell>
                <mxCell id="172" value="" style="endArrow=none;html=1;fontSize=20;exitX=0.002;exitY=0.139;exitDx=0;exitDy=0;exitPerimeter=0;entryX=0.997;entryY=0.138;entryDx=0;entryDy=0;entryPerimeter=0;" edge="1" parent="1" source="171" target="171">
                    <mxGeometry width="50" height="50" relative="1" as="geometry">
                        <mxPoint x="1210.12" y="1070" as="sourcePoint"/>
                        <mxPoint x="1260.12" y="1020" as="targetPoint"/>
                    </mxGeometry>
                </mxCell>
                <mxCell id="173" value="" style="endArrow=none;html=1;fontSize=20;exitX=0.004;exitY=0.278;exitDx=0;exitDy=0;exitPerimeter=0;entryX=1.002;entryY=0.28;entryDx=0;entryDy=0;entryPerimeter=0;" edge="1" parent="1" source="171" target="171">
                    <mxGeometry width="50" height="50" relative="1" as="geometry">
                        <mxPoint x="1030.12" y="1090" as="sourcePoint"/>
                        <mxPoint x="1080.12" y="1040" as="targetPoint"/>
                    </mxGeometry>
                </mxCell>
                <mxCell id="174" value="" style="endArrow=none;html=1;fontSize=20;entryX=0.999;entryY=0.42;entryDx=0;entryDy=0;entryPerimeter=0;exitX=-0.003;exitY=0.42;exitDx=0;exitDy=0;exitPerimeter=0;" edge="1" parent="1" source="171" target="171">
                    <mxGeometry width="50" height="50" relative="1" as="geometry">
                        <mxPoint x="1030.12" y="1120" as="sourcePoint"/>
                        <mxPoint x="1080.12" y="1070" as="targetPoint"/>
                    </mxGeometry>
                </mxCell>
                <mxCell id="175" value="" style="endArrow=none;html=1;fontSize=20;exitX=0;exitY=0.561;exitDx=0;exitDy=0;exitPerimeter=0;entryX=0.999;entryY=0.561;entryDx=0;entryDy=0;entryPerimeter=0;" edge="1" parent="1" source="171" target="171">
                    <mxGeometry width="50" height="50" relative="1" as="geometry">
                        <mxPoint x="1220.12" y="1150" as="sourcePoint"/>
                        <mxPoint x="1230.12" y="1157" as="targetPoint"/>
                    </mxGeometry>
                </mxCell>
                <mxCell id="176" value="" style="endArrow=none;html=1;fontSize=20;exitX=0.004;exitY=0.697;exitDx=0;exitDy=0;exitPerimeter=0;entryX=1.002;entryY=0.697;entryDx=0;entryDy=0;entryPerimeter=0;" edge="1" parent="1" source="171" target="171">
                    <mxGeometry width="50" height="50" relative="1" as="geometry">
                        <mxPoint x="1210.12" y="1210" as="sourcePoint"/>
                        <mxPoint x="1260.12" y="1160" as="targetPoint"/>
                    </mxGeometry>
                </mxCell>
                <mxCell id="177" value="" style="endArrow=none;html=1;fontSize=20;exitX=-0.002;exitY=0.84;exitDx=0;exitDy=0;exitPerimeter=0;entryX=1.001;entryY=0.835;entryDx=0;entryDy=0;entryPerimeter=0;" edge="1" parent="1" source="171" target="171">
                    <mxGeometry width="50" height="50" relative="1" as="geometry">
                        <mxPoint x="1240.12" y="1250" as="sourcePoint"/>
                        <mxPoint x="1290.12" y="1200" as="targetPoint"/>
                    </mxGeometry>
                </mxCell>
                <mxCell id="178" value="Var" style="text;html=1;strokeColor=none;fillColor=none;align=center;verticalAlign=middle;whiteSpace=wrap;rounded=0;fontSize=20;" vertex="1" parent="1">
                    <mxGeometry x="1080.12" y="1000" width="120" height="30" as="geometry"/>
                </mxCell>
                <mxCell id="179" value="this" style="text;html=1;strokeColor=none;fillColor=none;align=center;verticalAlign=middle;whiteSpace=wrap;rounded=0;fontSize=20;" vertex="1" parent="1">
                    <mxGeometry x="1080.12" y="1030" width="120" height="20" as="geometry"/>
                </mxCell>
                <mxCell id="180" value="clsC" style="text;html=1;strokeColor=none;fillColor=none;align=center;verticalAlign=middle;whiteSpace=wrap;rounded=0;fontSize=20;" vertex="1" parent="1">
                    <mxGeometry x="1080.12" y="1060" width="120" height="20" as="geometry"/>
                </mxCell>
                <mxCell id="181" value="Adr = 0" style="text;html=1;strokeColor=none;fillColor=none;align=center;verticalAlign=middle;whiteSpace=wrap;rounded=0;fontSize=20;" vertex="1" parent="1">
                    <mxGeometry x="1080.12" y="1110" width="120" height="30" as="geometry"/>
                </mxCell>
                <mxCell id="182" value="Level = 1" style="text;html=1;strokeColor=none;fillColor=none;align=center;verticalAlign=middle;whiteSpace=wrap;rounded=0;fontSize=20;" vertex="1" parent="1">
                    <mxGeometry x="1080.12" y="1140" width="120" height="30" as="geometry"/>
                </mxCell>
                <mxCell id="183" value="" style="rounded=0;whiteSpace=wrap;html=1;fontSize=20;" vertex="1" parent="1">
                    <mxGeometry x="1280.12" y="1000" width="120" height="200" as="geometry"/>
                </mxCell>
                <mxCell id="184" value="" style="endArrow=none;html=1;fontSize=20;exitX=0.002;exitY=0.139;exitDx=0;exitDy=0;exitPerimeter=0;entryX=0.997;entryY=0.138;entryDx=0;entryDy=0;entryPerimeter=0;" edge="1" parent="1" source="183" target="183">
                    <mxGeometry width="50" height="50" relative="1" as="geometry">
                        <mxPoint x="1410.12" y="1070" as="sourcePoint"/>
                        <mxPoint x="1460.12" y="1020" as="targetPoint"/>
                    </mxGeometry>
                </mxCell>
                <mxCell id="185" value="" style="endArrow=none;html=1;fontSize=20;exitX=0.004;exitY=0.278;exitDx=0;exitDy=0;exitPerimeter=0;entryX=1.002;entryY=0.28;entryDx=0;entryDy=0;entryPerimeter=0;" edge="1" parent="1" source="183" target="183">
                    <mxGeometry width="50" height="50" relative="1" as="geometry">
                        <mxPoint x="1230.12" y="1090" as="sourcePoint"/>
                        <mxPoint x="1280.12" y="1040" as="targetPoint"/>
                    </mxGeometry>
                </mxCell>
                <mxCell id="186" value="" style="endArrow=none;html=1;fontSize=20;entryX=0.999;entryY=0.42;entryDx=0;entryDy=0;entryPerimeter=0;exitX=-0.003;exitY=0.42;exitDx=0;exitDy=0;exitPerimeter=0;" edge="1" parent="1" source="183" target="183">
                    <mxGeometry width="50" height="50" relative="1" as="geometry">
                        <mxPoint x="1230.12" y="1120" as="sourcePoint"/>
                        <mxPoint x="1280.12" y="1070" as="targetPoint"/>
                    </mxGeometry>
                </mxCell>
                <mxCell id="187" value="" style="endArrow=none;html=1;fontSize=20;exitX=0;exitY=0.561;exitDx=0;exitDy=0;exitPerimeter=0;entryX=0.999;entryY=0.561;entryDx=0;entryDy=0;entryPerimeter=0;" edge="1" parent="1" source="183" target="183">
                    <mxGeometry width="50" height="50" relative="1" as="geometry">
                        <mxPoint x="1420.12" y="1150" as="sourcePoint"/>
                        <mxPoint x="1430.12" y="1157" as="targetPoint"/>
                    </mxGeometry>
                </mxCell>
                <mxCell id="188" value="" style="endArrow=none;html=1;fontSize=20;exitX=0.004;exitY=0.697;exitDx=0;exitDy=0;exitPerimeter=0;entryX=1.002;entryY=0.697;entryDx=0;entryDy=0;entryPerimeter=0;" edge="1" parent="1" source="183" target="183">
                    <mxGeometry width="50" height="50" relative="1" as="geometry">
                        <mxPoint x="1410.12" y="1210" as="sourcePoint"/>
                        <mxPoint x="1460.12" y="1160" as="targetPoint"/>
                    </mxGeometry>
                </mxCell>
                <mxCell id="189" value="" style="endArrow=none;html=1;fontSize=20;exitX=-0.002;exitY=0.84;exitDx=0;exitDy=0;exitPerimeter=0;entryX=1.001;entryY=0.835;entryDx=0;entryDy=0;entryPerimeter=0;" edge="1" parent="1" source="183" target="183">
                    <mxGeometry width="50" height="50" relative="1" as="geometry">
                        <mxPoint x="1440.12" y="1250" as="sourcePoint"/>
                        <mxPoint x="1490.12" y="1200" as="targetPoint"/>
                    </mxGeometry>
                </mxCell>
                <mxCell id="190" value="Var" style="text;html=1;strokeColor=none;fillColor=none;align=center;verticalAlign=middle;whiteSpace=wrap;rounded=0;fontSize=20;" vertex="1" parent="1">
                    <mxGeometry x="1280.12" y="1000" width="120" height="30" as="geometry"/>
                </mxCell>
                <mxCell id="191" value="c" style="text;html=1;strokeColor=none;fillColor=none;align=center;verticalAlign=middle;whiteSpace=wrap;rounded=0;fontSize=20;" vertex="1" parent="1">
                    <mxGeometry x="1280.12" y="1030" width="120" height="20" as="geometry"/>
                </mxCell>
                <mxCell id="192" value="intType" style="text;html=1;strokeColor=none;fillColor=none;align=center;verticalAlign=middle;whiteSpace=wrap;rounded=0;fontSize=20;" vertex="1" parent="1">
                    <mxGeometry x="1280.12" y="1060" width="120" height="20" as="geometry"/>
                </mxCell>
                <mxCell id="193" value="-" style="text;html=1;strokeColor=none;fillColor=none;align=center;verticalAlign=middle;whiteSpace=wrap;rounded=0;fontSize=20;" vertex="1" parent="1">
                    <mxGeometry x="1280.12" y="1090" width="120" height="20" as="geometry"/>
                </mxCell>
                <mxCell id="194" value="Adr = 1" style="text;html=1;strokeColor=none;fillColor=none;align=center;verticalAlign=middle;whiteSpace=wrap;rounded=0;fontSize=20;" vertex="1" parent="1">
                    <mxGeometry x="1280.12" y="1110" width="120" height="30" as="geometry"/>
                </mxCell>
                <mxCell id="195" value="Level = 1" style="text;html=1;strokeColor=none;fillColor=none;align=center;verticalAlign=middle;whiteSpace=wrap;rounded=0;fontSize=20;" vertex="1" parent="1">
                    <mxGeometry x="1280.12" y="1140" width="120" height="30" as="geometry"/>
                </mxCell>
                <mxCell id="196" value="" style="endArrow=classic;html=1;fontSize=20;exitX=0.5;exitY=1;exitDx=0;exitDy=0;entryX=0;entryY=0.5;entryDx=0;entryDy=0;" edge="1" parent="1" source="157" target="171">
                    <mxGeometry width="50" height="50" relative="1" as="geometry">
                        <mxPoint x="929.76" y="1090" as="sourcePoint"/>
                        <mxPoint x="979.76" y="1040" as="targetPoint"/>
                        <Array as="points">
                            <mxPoint x="999.76" y="1100"/>
                        </Array>
                    </mxGeometry>
                </mxCell>
                <mxCell id="225" style="edgeStyle=none;html=1;exitX=1;exitY=0.5;exitDx=0;exitDy=0;entryX=0;entryY=0.5;entryDx=0;entryDy=0;fontSize=20;" edge="1" parent="1" source="198" target="222">
                    <mxGeometry relative="1" as="geometry"/>
                </mxCell>
                <mxCell id="198" value="" style="rounded=0;whiteSpace=wrap;html=1;fontSize=20;" vertex="1" parent="1">
                    <mxGeometry x="280.4199999999999" y="760" width="120" height="200" as="geometry"/>
                </mxCell>
                <mxCell id="199" value="" style="endArrow=none;html=1;fontSize=20;exitX=0.002;exitY=0.139;exitDx=0;exitDy=0;exitPerimeter=0;entryX=0.997;entryY=0.138;entryDx=0;entryDy=0;entryPerimeter=0;" edge="1" source="198" target="198" parent="1">
                    <mxGeometry width="50" height="50" relative="1" as="geometry">
                        <mxPoint x="410.4199999999999" y="830" as="sourcePoint"/>
                        <mxPoint x="460.4199999999999" y="780" as="targetPoint"/>
                    </mxGeometry>
                </mxCell>
                <mxCell id="200" value="" style="endArrow=none;html=1;fontSize=20;exitX=0.004;exitY=0.278;exitDx=0;exitDy=0;exitPerimeter=0;entryX=1.002;entryY=0.28;entryDx=0;entryDy=0;entryPerimeter=0;" edge="1" source="198" target="198" parent="1">
                    <mxGeometry width="50" height="50" relative="1" as="geometry">
                        <mxPoint x="230.4199999999999" y="850" as="sourcePoint"/>
                        <mxPoint x="280.4199999999999" y="800" as="targetPoint"/>
                    </mxGeometry>
                </mxCell>
                <mxCell id="201" value="" style="endArrow=none;html=1;fontSize=20;entryX=0.999;entryY=0.42;entryDx=0;entryDy=0;entryPerimeter=0;exitX=-0.003;exitY=0.42;exitDx=0;exitDy=0;exitPerimeter=0;" edge="1" source="198" target="198" parent="1">
                    <mxGeometry width="50" height="50" relative="1" as="geometry">
                        <mxPoint x="230.4199999999999" y="880" as="sourcePoint"/>
                        <mxPoint x="280.4199999999999" y="830" as="targetPoint"/>
                    </mxGeometry>
                </mxCell>
                <mxCell id="202" value="" style="endArrow=none;html=1;fontSize=20;exitX=0;exitY=0.561;exitDx=0;exitDy=0;exitPerimeter=0;entryX=0.999;entryY=0.561;entryDx=0;entryDy=0;entryPerimeter=0;" edge="1" source="198" target="198" parent="1">
                    <mxGeometry width="50" height="50" relative="1" as="geometry">
                        <mxPoint x="420.4199999999999" y="910" as="sourcePoint"/>
                        <mxPoint x="430.4199999999999" y="917" as="targetPoint"/>
                    </mxGeometry>
                </mxCell>
                <mxCell id="203" value="" style="endArrow=none;html=1;fontSize=20;exitX=0.004;exitY=0.697;exitDx=0;exitDy=0;exitPerimeter=0;entryX=1.002;entryY=0.697;entryDx=0;entryDy=0;entryPerimeter=0;" edge="1" source="198" target="198" parent="1">
                    <mxGeometry width="50" height="50" relative="1" as="geometry">
                        <mxPoint x="410.4199999999999" y="970" as="sourcePoint"/>
                        <mxPoint x="460.4199999999999" y="920" as="targetPoint"/>
                    </mxGeometry>
                </mxCell>
                <mxCell id="204" value="" style="endArrow=none;html=1;fontSize=20;exitX=-0.002;exitY=0.84;exitDx=0;exitDy=0;exitPerimeter=0;entryX=1.001;entryY=0.835;entryDx=0;entryDy=0;entryPerimeter=0;" edge="1" source="198" target="198" parent="1">
                    <mxGeometry width="50" height="50" relative="1" as="geometry">
                        <mxPoint x="440.4199999999999" y="1010" as="sourcePoint"/>
                        <mxPoint x="490.4199999999999" y="960" as="targetPoint"/>
                    </mxGeometry>
                </mxCell>
                <mxCell id="205" value="Fld" style="text;html=1;strokeColor=none;fillColor=none;align=center;verticalAlign=middle;whiteSpace=wrap;rounded=0;fontSize=20;" vertex="1" parent="1">
                    <mxGeometry x="280.4199999999999" y="760" width="120" height="30" as="geometry"/>
                </mxCell>
                <mxCell id="206" value="v" style="text;html=1;strokeColor=none;fillColor=none;align=center;verticalAlign=middle;whiteSpace=wrap;rounded=0;fontSize=20;" vertex="1" parent="1">
                    <mxGeometry x="280.4199999999999" y="790" width="120" height="20" as="geometry"/>
                </mxCell>
                <mxCell id="207" value="intType" style="text;html=1;strokeColor=none;fillColor=none;align=center;verticalAlign=middle;whiteSpace=wrap;rounded=0;fontSize=20;" vertex="1" parent="1">
                    <mxGeometry x="280.4199999999999" y="820" width="120" height="20" as="geometry"/>
                </mxCell>
                <mxCell id="209" value="Adr = 2" style="text;html=1;strokeColor=none;fillColor=none;align=center;verticalAlign=middle;whiteSpace=wrap;rounded=0;fontSize=20;" vertex="1" parent="1">
                    <mxGeometry x="280.4199999999999" y="870" width="120" height="30" as="geometry"/>
                </mxCell>
                <mxCell id="210" value="Level = 1" style="text;html=1;strokeColor=none;fillColor=none;align=center;verticalAlign=middle;whiteSpace=wrap;rounded=0;fontSize=20;" vertex="1" parent="1">
                    <mxGeometry x="280.4199999999999" y="900" width="120" height="30" as="geometry"/>
                </mxCell>
                <mxCell id="212" value="" style="rounded=0;whiteSpace=wrap;html=1;fontSize=20;" vertex="1" parent="1">
                    <mxGeometry x="480.1199999999999" y="760" width="120" height="200" as="geometry"/>
                </mxCell>
                <mxCell id="213" value="" style="endArrow=none;html=1;fontSize=20;exitX=0.002;exitY=0.139;exitDx=0;exitDy=0;exitPerimeter=0;entryX=0.997;entryY=0.138;entryDx=0;entryDy=0;entryPerimeter=0;" edge="1" parent="1" source="212" target="212">
                    <mxGeometry width="50" height="50" relative="1" as="geometry">
                        <mxPoint x="610.1199999999999" y="830" as="sourcePoint"/>
                        <mxPoint x="660.1199999999999" y="780" as="targetPoint"/>
                    </mxGeometry>
                </mxCell>
                <mxCell id="214" value="" style="endArrow=none;html=1;fontSize=20;exitX=0.004;exitY=0.278;exitDx=0;exitDy=0;exitPerimeter=0;entryX=1.002;entryY=0.28;entryDx=0;entryDy=0;entryPerimeter=0;" edge="1" parent="1" source="212" target="212">
                    <mxGeometry width="50" height="50" relative="1" as="geometry">
                        <mxPoint x="430.1199999999999" y="850" as="sourcePoint"/>
                        <mxPoint x="480.1199999999999" y="800" as="targetPoint"/>
                    </mxGeometry>
                </mxCell>
                <mxCell id="215" value="" style="endArrow=none;html=1;fontSize=20;entryX=0.999;entryY=0.42;entryDx=0;entryDy=0;entryPerimeter=0;exitX=-0.003;exitY=0.42;exitDx=0;exitDy=0;exitPerimeter=0;" edge="1" parent="1" source="212" target="212">
                    <mxGeometry width="50" height="50" relative="1" as="geometry">
                        <mxPoint x="430.1199999999999" y="880" as="sourcePoint"/>
                        <mxPoint x="480.1199999999999" y="830" as="targetPoint"/>
                    </mxGeometry>
                </mxCell>
                <mxCell id="216" value="" style="endArrow=none;html=1;fontSize=20;exitX=0;exitY=0.561;exitDx=0;exitDy=0;exitPerimeter=0;entryX=0.999;entryY=0.561;entryDx=0;entryDy=0;entryPerimeter=0;" edge="1" parent="1" source="212" target="212">
                    <mxGeometry width="50" height="50" relative="1" as="geometry">
                        <mxPoint x="620.1199999999999" y="910" as="sourcePoint"/>
                        <mxPoint x="630.1199999999999" y="917" as="targetPoint"/>
                    </mxGeometry>
                </mxCell>
                <mxCell id="217" value="" style="endArrow=none;html=1;fontSize=20;exitX=0.004;exitY=0.697;exitDx=0;exitDy=0;exitPerimeter=0;entryX=1.002;entryY=0.697;entryDx=0;entryDy=0;entryPerimeter=0;" edge="1" parent="1" source="212" target="212">
                    <mxGeometry width="50" height="50" relative="1" as="geometry">
                        <mxPoint x="610.1199999999999" y="970" as="sourcePoint"/>
                        <mxPoint x="660.1199999999999" y="920" as="targetPoint"/>
                    </mxGeometry>
                </mxCell>
                <mxCell id="218" value="" style="endArrow=none;html=1;fontSize=20;exitX=-0.002;exitY=0.84;exitDx=0;exitDy=0;exitPerimeter=0;entryX=1.001;entryY=0.835;entryDx=0;entryDy=0;entryPerimeter=0;" edge="1" parent="1" source="212" target="212">
                    <mxGeometry width="50" height="50" relative="1" as="geometry">
                        <mxPoint x="640.1199999999999" y="1010" as="sourcePoint"/>
                        <mxPoint x="690.1199999999999" y="960" as="targetPoint"/>
                    </mxGeometry>
                </mxCell>
                <mxCell id="219" value="Meth" style="text;html=1;strokeColor=none;fillColor=none;align=center;verticalAlign=middle;whiteSpace=wrap;rounded=0;fontSize=20;" vertex="1" parent="1">
                    <mxGeometry x="480.1199999999999" y="760" width="120" height="30" as="geometry"/>
                </mxCell>
                <mxCell id="220" value="m" style="text;html=1;strokeColor=none;fillColor=none;align=center;verticalAlign=middle;whiteSpace=wrap;rounded=0;fontSize=20;" vertex="1" parent="1">
                    <mxGeometry x="480.1199999999999" y="790" width="120" height="20" as="geometry"/>
                </mxCell>
                <mxCell id="221" value="intType" style="text;html=1;strokeColor=none;fillColor=none;align=center;verticalAlign=middle;whiteSpace=wrap;rounded=0;fontSize=20;" vertex="1" parent="1">
                    <mxGeometry x="480.1199999999999" y="820" width="120" height="20" as="geometry"/>
                </mxCell>
                <mxCell id="222" value="-" style="text;html=1;strokeColor=none;fillColor=none;align=center;verticalAlign=middle;whiteSpace=wrap;rounded=0;fontSize=20;" vertex="1" parent="1">
                    <mxGeometry x="480.1199999999999" y="850" width="120" height="20" as="geometry"/>
                </mxCell>
                <mxCell id="223" value="Adr = ?" style="text;html=1;strokeColor=none;fillColor=none;align=center;verticalAlign=middle;whiteSpace=wrap;rounded=0;fontSize=20;" vertex="1" parent="1">
                    <mxGeometry x="480.1199999999999" y="870" width="120" height="30" as="geometry"/>
                </mxCell>
                <mxCell id="224" value="Level = 1" style="text;html=1;strokeColor=none;fillColor=none;align=center;verticalAlign=middle;whiteSpace=wrap;rounded=0;fontSize=20;" vertex="1" parent="1">
                    <mxGeometry x="480.1199999999999" y="900" width="120" height="30" as="geometry"/>
                </mxCell>
                <mxCell id="226" value="" style="rounded=0;whiteSpace=wrap;html=1;fontSize=20;" vertex="1" parent="1">
                    <mxGeometry x="80" y="1160" width="120" height="80" as="geometry"/>
                </mxCell>
                <mxCell id="227" value="" style="endArrow=none;html=1;exitX=0;exitY=0.5;exitDx=0;exitDy=0;entryX=1;entryY=0.5;entryDx=0;entryDy=0;fontSize=20;" edge="1" source="226" target="226" parent="1">
                    <mxGeometry width="50" height="50" relative="1" as="geometry">
                        <mxPoint x="90" y="1350" as="sourcePoint"/>
                        <mxPoint x="140" y="1300" as="targetPoint"/>
                    </mxGeometry>
                </mxCell>
                <mxCell id="228" value="" style="endArrow=none;html=1;exitX=0.5;exitY=0;exitDx=0;exitDy=0;fontSize=20;" edge="1" source="226" parent="1">
                    <mxGeometry width="50" height="50" relative="1" as="geometry">
                        <mxPoint x="180" y="1330" as="sourcePoint"/>
                        <mxPoint x="140" y="1200" as="targetPoint"/>
                    </mxGeometry>
                </mxCell>
                <mxCell id="229" value="&lt;font style=&quot;font-size: 20px&quot;&gt;2&lt;/font&gt;" style="text;html=1;strokeColor=none;fillColor=none;align=center;verticalAlign=middle;whiteSpace=wrap;rounded=0;fontSize=20;" vertex="1" parent="1">
                    <mxGeometry x="80" y="1200" width="120" height="40" as="geometry"/>
                </mxCell>
                <mxCell id="230" value="" style="endArrow=classic;html=1;fontSize=20;exitX=0.25;exitY=0;exitDx=0;exitDy=0;entryX=0.25;entryY=1;entryDx=0;entryDy=0;" edge="1" source="226" parent="1" target="109">
                    <mxGeometry width="50" height="50" relative="1" as="geometry">
                        <mxPoint x="90" y="1360" as="sourcePoint"/>
                        <mxPoint x="110" y="1080" as="targetPoint"/>
                    </mxGeometry>
                </mxCell>
                <mxCell id="231" value="" style="endArrow=classic;html=1;fontSize=20;" edge="1" parent="1">
                    <mxGeometry width="50" height="50" relative="1" as="geometry">
                        <mxPoint x="200" y="1180" as="sourcePoint"/>
                        <mxPoint x="280" y="1180" as="targetPoint"/>
                    </mxGeometry>
                </mxCell>
                <mxCell id="274" style="edgeStyle=none;html=1;exitX=1;exitY=0.5;exitDx=0;exitDy=0;entryX=0;entryY=0.5;entryDx=0;entryDy=0;fontSize=20;" edge="1" parent="1" source="246" target="270">
                    <mxGeometry relative="1" as="geometry"/>
                </mxCell>
                <mxCell id="246" value="" style="rounded=0;whiteSpace=wrap;html=1;fontSize=20;" vertex="1" parent="1">
                    <mxGeometry x="280.3599999999999" y="1080" width="120" height="200" as="geometry"/>
                </mxCell>
                <mxCell id="247" value="" style="endArrow=none;html=1;fontSize=20;exitX=0.002;exitY=0.139;exitDx=0;exitDy=0;exitPerimeter=0;entryX=0.997;entryY=0.138;entryDx=0;entryDy=0;entryPerimeter=0;" edge="1" source="246" target="246" parent="1">
                    <mxGeometry width="50" height="50" relative="1" as="geometry">
                        <mxPoint x="410.3599999999999" y="1150" as="sourcePoint"/>
                        <mxPoint x="460.3599999999999" y="1100" as="targetPoint"/>
                    </mxGeometry>
                </mxCell>
                <mxCell id="248" value="" style="endArrow=none;html=1;fontSize=20;exitX=0.004;exitY=0.278;exitDx=0;exitDy=0;exitPerimeter=0;entryX=1.002;entryY=0.28;entryDx=0;entryDy=0;entryPerimeter=0;" edge="1" source="246" target="246" parent="1">
                    <mxGeometry width="50" height="50" relative="1" as="geometry">
                        <mxPoint x="230.3599999999999" y="1170" as="sourcePoint"/>
                        <mxPoint x="280.3599999999999" y="1120" as="targetPoint"/>
                    </mxGeometry>
                </mxCell>
                <mxCell id="249" value="" style="endArrow=none;html=1;fontSize=20;entryX=0.999;entryY=0.42;entryDx=0;entryDy=0;entryPerimeter=0;exitX=-0.003;exitY=0.42;exitDx=0;exitDy=0;exitPerimeter=0;" edge="1" source="246" target="246" parent="1">
                    <mxGeometry width="50" height="50" relative="1" as="geometry">
                        <mxPoint x="230.3599999999999" y="1200" as="sourcePoint"/>
                        <mxPoint x="280.3599999999999" y="1150" as="targetPoint"/>
                    </mxGeometry>
                </mxCell>
                <mxCell id="250" value="" style="endArrow=none;html=1;fontSize=20;exitX=0;exitY=0.561;exitDx=0;exitDy=0;exitPerimeter=0;entryX=0.999;entryY=0.561;entryDx=0;entryDy=0;entryPerimeter=0;" edge="1" source="246" target="246" parent="1">
                    <mxGeometry width="50" height="50" relative="1" as="geometry">
                        <mxPoint x="420.3599999999999" y="1230" as="sourcePoint"/>
                        <mxPoint x="430.3599999999999" y="1237" as="targetPoint"/>
                    </mxGeometry>
                </mxCell>
                <mxCell id="251" value="" style="endArrow=none;html=1;fontSize=20;exitX=0.004;exitY=0.697;exitDx=0;exitDy=0;exitPerimeter=0;entryX=1.002;entryY=0.697;entryDx=0;entryDy=0;entryPerimeter=0;" edge="1" source="246" target="246" parent="1">
                    <mxGeometry width="50" height="50" relative="1" as="geometry">
                        <mxPoint x="410.3599999999999" y="1290" as="sourcePoint"/>
                        <mxPoint x="460.3599999999999" y="1240" as="targetPoint"/>
                    </mxGeometry>
                </mxCell>
                <mxCell id="252" value="" style="endArrow=none;html=1;fontSize=20;exitX=-0.002;exitY=0.84;exitDx=0;exitDy=0;exitPerimeter=0;entryX=1.001;entryY=0.835;entryDx=0;entryDy=0;entryPerimeter=0;" edge="1" source="246" target="246" parent="1">
                    <mxGeometry width="50" height="50" relative="1" as="geometry">
                        <mxPoint x="440.3599999999999" y="1330" as="sourcePoint"/>
                        <mxPoint x="490.3599999999999" y="1280" as="targetPoint"/>
                    </mxGeometry>
                </mxCell>
                <mxCell id="253" value="Var" style="text;html=1;strokeColor=none;fillColor=none;align=center;verticalAlign=middle;whiteSpace=wrap;rounded=0;fontSize=20;" vertex="1" parent="1">
                    <mxGeometry x="280.3599999999999" y="1080" width="120" height="30" as="geometry"/>
                </mxCell>
                <mxCell id="254" value="this" style="text;html=1;strokeColor=none;fillColor=none;align=center;verticalAlign=middle;whiteSpace=wrap;rounded=0;fontSize=20;" vertex="1" parent="1">
                    <mxGeometry x="280.3599999999999" y="1110" width="120" height="20" as="geometry"/>
                </mxCell>
                <mxCell id="255" value="clsDC" style="text;html=1;strokeColor=none;fillColor=none;align=center;verticalAlign=middle;whiteSpace=wrap;rounded=0;fontSize=20;" vertex="1" parent="1">
                    <mxGeometry x="280.3599999999999" y="1140" width="120" height="20" as="geometry"/>
                </mxCell>
                <mxCell id="257" value="Adr = 0" style="text;html=1;strokeColor=none;fillColor=none;align=center;verticalAlign=middle;whiteSpace=wrap;rounded=0;fontSize=20;" vertex="1" parent="1">
                    <mxGeometry x="280.3599999999999" y="1190" width="120" height="30" as="geometry"/>
                </mxCell>
                <mxCell id="258" value="Level = 1" style="text;html=1;strokeColor=none;fillColor=none;align=center;verticalAlign=middle;whiteSpace=wrap;rounded=0;fontSize=20;" vertex="1" parent="1">
                    <mxGeometry x="280.3599999999999" y="1220" width="120" height="30" as="geometry"/>
                </mxCell>
                <mxCell id="260" value="" style="rounded=0;whiteSpace=wrap;html=1;fontSize=20;" vertex="1" parent="1">
                    <mxGeometry x="480.3599999999999" y="1080" width="120" height="200" as="geometry"/>
                </mxCell>
                <mxCell id="261" value="" style="endArrow=none;html=1;fontSize=20;exitX=0.002;exitY=0.139;exitDx=0;exitDy=0;exitPerimeter=0;entryX=0.997;entryY=0.138;entryDx=0;entryDy=0;entryPerimeter=0;" edge="1" source="260" target="260" parent="1">
                    <mxGeometry width="50" height="50" relative="1" as="geometry">
                        <mxPoint x="610.3599999999999" y="1150" as="sourcePoint"/>
                        <mxPoint x="660.3599999999999" y="1100" as="targetPoint"/>
                    </mxGeometry>
                </mxCell>
                <mxCell id="262" value="" style="endArrow=none;html=1;fontSize=20;exitX=0.004;exitY=0.278;exitDx=0;exitDy=0;exitPerimeter=0;entryX=1.002;entryY=0.28;entryDx=0;entryDy=0;entryPerimeter=0;" edge="1" source="260" target="260" parent="1">
                    <mxGeometry width="50" height="50" relative="1" as="geometry">
                        <mxPoint x="430.3599999999999" y="1170" as="sourcePoint"/>
                        <mxPoint x="480.3599999999999" y="1120" as="targetPoint"/>
                    </mxGeometry>
                </mxCell>
                <mxCell id="263" value="" style="endArrow=none;html=1;fontSize=20;entryX=0.999;entryY=0.42;entryDx=0;entryDy=0;entryPerimeter=0;exitX=-0.003;exitY=0.42;exitDx=0;exitDy=0;exitPerimeter=0;" edge="1" source="260" target="260" parent="1">
                    <mxGeometry width="50" height="50" relative="1" as="geometry">
                        <mxPoint x="430.3599999999999" y="1200" as="sourcePoint"/>
                        <mxPoint x="480.3599999999999" y="1150" as="targetPoint"/>
                    </mxGeometry>
                </mxCell>
                <mxCell id="264" value="" style="endArrow=none;html=1;fontSize=20;exitX=0;exitY=0.561;exitDx=0;exitDy=0;exitPerimeter=0;entryX=0.999;entryY=0.561;entryDx=0;entryDy=0;entryPerimeter=0;" edge="1" source="260" target="260" parent="1">
                    <mxGeometry width="50" height="50" relative="1" as="geometry">
                        <mxPoint x="620.3599999999999" y="1230" as="sourcePoint"/>
                        <mxPoint x="630.3599999999999" y="1237" as="targetPoint"/>
                    </mxGeometry>
                </mxCell>
                <mxCell id="265" value="" style="endArrow=none;html=1;fontSize=20;exitX=0.004;exitY=0.697;exitDx=0;exitDy=0;exitPerimeter=0;entryX=1.002;entryY=0.697;entryDx=0;entryDy=0;entryPerimeter=0;" edge="1" source="260" target="260" parent="1">
                    <mxGeometry width="50" height="50" relative="1" as="geometry">
                        <mxPoint x="610.3599999999999" y="1290" as="sourcePoint"/>
                        <mxPoint x="660.3599999999999" y="1240" as="targetPoint"/>
                    </mxGeometry>
                </mxCell>
                <mxCell id="266" value="" style="endArrow=none;html=1;fontSize=20;exitX=-0.002;exitY=0.84;exitDx=0;exitDy=0;exitPerimeter=0;entryX=1.001;entryY=0.835;entryDx=0;entryDy=0;entryPerimeter=0;" edge="1" source="260" target="260" parent="1">
                    <mxGeometry width="50" height="50" relative="1" as="geometry">
                        <mxPoint x="640.3599999999999" y="1330" as="sourcePoint"/>
                        <mxPoint x="690.3599999999999" y="1280" as="targetPoint"/>
                    </mxGeometry>
                </mxCell>
                <mxCell id="267" value="Var" style="text;html=1;strokeColor=none;fillColor=none;align=center;verticalAlign=middle;whiteSpace=wrap;rounded=0;fontSize=20;" vertex="1" parent="1">
                    <mxGeometry x="480.3599999999999" y="1080" width="120" height="30" as="geometry"/>
                </mxCell>
                <mxCell id="268" value="q" style="text;html=1;strokeColor=none;fillColor=none;align=center;verticalAlign=middle;whiteSpace=wrap;rounded=0;fontSize=20;" vertex="1" parent="1">
                    <mxGeometry x="480.3599999999999" y="1110" width="120" height="20" as="geometry"/>
                </mxCell>
                <mxCell id="269" value="intType" style="text;html=1;strokeColor=none;fillColor=none;align=center;verticalAlign=middle;whiteSpace=wrap;rounded=0;fontSize=20;" vertex="1" parent="1">
                    <mxGeometry x="480.3599999999999" y="1140" width="120" height="20" as="geometry"/>
                </mxCell>
                <mxCell id="270" value="-" style="text;html=1;strokeColor=none;fillColor=none;align=center;verticalAlign=middle;whiteSpace=wrap;rounded=0;fontSize=20;" vertex="1" parent="1">
                    <mxGeometry x="480.3599999999999" y="1170" width="120" height="20" as="geometry"/>
                </mxCell>
                <mxCell id="271" value="Adr = 1" style="text;html=1;strokeColor=none;fillColor=none;align=center;verticalAlign=middle;whiteSpace=wrap;rounded=0;fontSize=20;" vertex="1" parent="1">
                    <mxGeometry x="480.3599999999999" y="1190" width="120" height="30" as="geometry"/>
                </mxCell>
                <mxCell id="272" value="Level = 1" style="text;html=1;strokeColor=none;fillColor=none;align=center;verticalAlign=middle;whiteSpace=wrap;rounded=0;fontSize=20;" vertex="1" parent="1">
                    <mxGeometry x="480.3599999999999" y="1220" width="120" height="30" as="geometry"/>
                </mxCell>
            </root>
        </mxGraphModel>
    </diagram>
</mxfile>
